<svg width="106" height="106" viewBox="0 0 106 106" fill="none" xmlns="http://www.w3.org/2000/svg">
<path d="M53 8.83337C28.6642 8.83337 8.83334 28.6642 8.83334 53C8.83334 77.3359 28.6642 97.1667 53 97.1667C77.3358 97.1667 97.1667 77.3359 97.1667 53C97.1667 28.6642 77.3358 8.83337 53 8.83337ZM74.1117 42.8417L49.0692 67.8842C48.4508 68.5025 47.6117 68.8559 46.7283 68.8559C45.845 68.8559 45.0058 68.5025 44.3875 67.8842L31.8883 55.385C30.6075 54.1042 30.6075 51.9842 31.8883 50.7034C33.1692 49.4225 35.2892 49.4225 36.57 50.7034L46.7283 60.8617L69.43 38.16C70.7108 36.8792 72.8308 36.8792 74.1117 38.16C75.3925 39.4409 75.3925 41.5167 74.1117 42.8417Z" fill="#95DCCD"/>
</svg>
