<svg width="25" height="24" viewBox="0 0 25 24" fill="none" xmlns="http://www.w3.org/2000/svg">
    <path fill-rule="evenodd" clip-rule="evenodd"
        d="M19.7 12.1706C19.7 11.6387 19.6523 11.1274 19.5636 10.6365H12.5V13.5376H16.5364C16.3625 14.4751 15.8341 15.2694 15.0398 15.8012V17.6831H17.4636C18.8818 16.3774 19.7 14.4547 19.7 12.1706Z"
        fill="#4285F4" />
    <path fill-rule="evenodd" clip-rule="evenodd"
        d="M12.5 19.5C14.525 19.5 16.2227 18.8285 17.4636 17.683L15.0398 15.8012C14.3682 16.2512 13.5091 16.5171 12.5 16.5171C10.5466 16.5171 8.89318 15.1978 8.30341 13.425H5.79773V15.3682C7.03182 17.8194 9.56818 19.5 12.5 19.5Z"
        fill="#34A853" />
    <path fill-rule="evenodd" clip-rule="evenodd"
        d="M8.30341 13.425C8.15341 12.975 8.06818 12.4943 8.06818 12C8.06818 11.5057 8.15341 11.025 8.30341 10.575V8.63184H5.79773C5.28977 9.64434 5 10.7898 5 12C5 13.2102 5.28977 14.3557 5.79773 15.3682L8.30341 13.425Z"
        fill="#FF9500" />
    <path fill-rule="evenodd" clip-rule="evenodd"
        d="M12.5 7.48295C13.6011 7.48295 14.5898 7.86136 15.367 8.60455L17.5182 6.45341C16.2193 5.24318 14.5216 4.5 12.5 4.5C9.56818 4.5 7.03182 6.18068 5.79773 8.63182L8.30341 10.575C8.89318 8.80227 10.5466 7.48295 12.5 7.48295Z"
        fill="#EA4335" />
</svg>