<svg width="24" height="24" viewBox="0 0 24 24" fill="none" xmlns="http://www.w3.org/2000/svg">
<path fill-rule="evenodd" clip-rule="evenodd" d="M7.84436 5.22204C8.11561 5.51624 8.11363 5.99111 7.83996 6.28269L5.79 8.46683C4.96094 9.35014 4.38177 9.96882 3.98795 10.496C3.76753 10.791 3.6241 11.0334 3.53425 11.25H21.3023C21.6876 11.25 22 11.5858 22 12C22 12.4142 21.6876 12.75 21.3023 12.75H3.53425C3.6241 12.9666 3.76753 13.209 3.98795 13.504C4.38177 14.0312 4.96094 14.6499 5.79 15.5332L7.83996 17.7173C8.11363 18.0089 8.1156 18.4838 7.84436 18.778C7.57312 19.0722 7.13138 19.0743 6.85771 18.7827L4.77742 16.5662C3.98576 15.7228 3.34934 15.0447 2.90001 14.4433C2.43612 13.8223 2.1146 13.2108 2.02873 12.4865C1.99042 12.1635 1.99042 11.8365 2.02873 11.5135C2.1146 10.7892 2.43612 10.1777 2.90001 9.55673C3.34934 8.95527 3.98575 8.27722 4.77742 7.43376L6.85771 5.21731C7.13139 4.92573 7.57312 4.92784 7.84436 5.22204Z" fill="#AEBECC"/>
</svg>
