<svg width="24" height="24" viewBox="0 0 24 24" fill="none" xmlns="http://www.w3.org/2000/svg">
<path d="M12.7692 8.92308C12.7692 8.49824 12.4248 8.15385 12 8.15385C11.5752 8.15385 11.2308 8.49824 11.2308 8.92308V11.2308H8.92308C8.49824 11.2308 8.15385 11.5752 8.15385 12C8.15385 12.4248 8.49824 12.7692 8.92308 12.7692H11.2308V15.0769C11.2308 15.5018 11.5752 15.8462 12 15.8462C12.4248 15.8462 12.7692 15.5018 12.7692 15.0769V12.7692H15.0769C15.5018 12.7692 15.8462 12.4248 15.8462 12C15.8462 11.5752 15.5018 11.2308 15.0769 11.2308H12.7692V8.92308Z" fill="#AEBECC"/>
<path fill-rule="evenodd" clip-rule="evenodd" d="M16.578 2.1269C15.4066 1.99999 13.93 1.99999 12.0464 2H11.9536C10.07 1.99999 8.59345 1.99999 7.42203 2.1269C6.2266 2.25642 5.25801 2.52546 4.43101 3.12631C3.93035 3.49006 3.49006 3.93035 3.12631 4.43101C2.52546 5.25801 2.25642 6.2266 2.1269 7.42203C1.99999 8.59345 1.99999 10.07 2 11.9536V12.0464C1.99999 13.93 1.99999 15.4066 2.1269 16.578C2.25642 17.7734 2.52546 18.742 3.12631 19.569C3.49006 20.0697 3.93035 20.5099 4.43101 20.8737C5.25801 21.4745 6.2266 21.7436 7.42203 21.8731C8.59343 22 10.0699 22 11.9535 22H12.0464C13.93 22 15.4066 22 16.578 21.8731C17.7734 21.7436 18.742 21.4745 19.569 20.8737C20.0697 20.5099 20.5099 20.0697 20.8737 19.569C21.4745 18.742 21.7436 17.7734 21.8731 16.578C22 15.4066 22 13.9301 22 12.0465V11.9536C22 10.07 22 8.59343 21.8731 7.42203C21.7436 6.2266 21.4745 5.25801 20.8737 4.43101C20.5099 3.93035 20.0697 3.49006 19.569 3.12631C18.742 2.52546 17.7734 2.25642 16.578 2.1269ZM5.3353 4.37095C5.85633 3.9924 6.52321 3.77175 7.58774 3.65641C8.66666 3.53952 10.0599 3.53846 12 3.53846C13.9401 3.53846 15.3333 3.53952 16.4123 3.65641C17.4768 3.77175 18.1437 3.9924 18.6647 4.37095C19.0348 4.63981 19.3602 4.96524 19.6291 5.3353C20.0076 5.85633 20.2283 6.52321 20.3436 7.58774C20.4605 8.66666 20.4615 10.0599 20.4615 12C20.4615 13.9401 20.4605 15.3333 20.3436 16.4123C20.2283 17.4768 20.0076 18.1437 19.6291 18.6647C19.3602 19.0348 19.0348 19.3602 18.6647 19.6291C18.1437 20.0076 17.4768 20.2283 16.4123 20.3436C15.3333 20.4605 13.9401 20.4615 12 20.4615C10.0599 20.4615 8.66666 20.4605 7.58774 20.3436C6.52321 20.2283 5.85633 20.0076 5.3353 19.6291C4.96524 19.3602 4.63981 19.0348 4.37095 18.6647C3.9924 18.1437 3.77175 17.4768 3.65641 16.4123C3.53952 15.3333 3.53846 13.9401 3.53846 12C3.53846 10.0599 3.53952 8.66666 3.65641 7.58774C3.77175 6.52321 3.9924 5.85633 4.37095 5.3353C4.63981 4.96524 4.96524 4.63981 5.3353 4.37095Z" fill="#AEBECC"/>
</svg>
