<svg width="24" height="24" viewBox="0 0 24 24" fill="none" xmlns="http://www.w3.org/2000/svg">
<path fill-rule="evenodd" clip-rule="evenodd" d="M5.79847 3.39536C4.39111 3.39536 3.39536 4.39364 3.39536 5.46222V15.6175C3.39536 16.686 4.39111 17.6843 5.79847 17.6843H6.57367C7.54746 17.6843 8.51298 18.0269 9.23007 18.6718L9.23179 18.6734L10.9959 20.2435C11.5378 20.7252 12.452 20.7252 12.9939 20.2435L14.758 18.6734L14.7597 18.6719C15.476 18.0276 16.4308 17.6843 17.4161 17.6843H18.2017C19.6074 17.6843 20.6048 16.6782 20.6048 15.6175V5.46222C20.6048 4.39364 19.609 3.39536 18.2017 3.39536H5.79847ZM2 5.46222C2 3.4777 3.77429 2 5.79847 2H18.2017C20.2258 2 22.0001 3.4777 22.0001 5.46222V15.6175C22.0001 17.5912 20.2274 19.0797 18.2017 19.0797H17.4161C16.7484 19.0797 16.1329 19.313 15.6918 19.7103L15.6887 19.713L13.9213 21.2861C12.8507 22.2378 11.1394 22.2381 10.0688 21.2863L8.30106 19.713L8.29802 19.7103C7.85766 19.3137 7.2322 19.0797 6.57367 19.0797H5.79847C3.77429 19.0797 2 17.602 2 15.6175V5.46222Z" fill="#AEBECC"/>
</svg>
