<svg width="20" height="20" viewBox="0 0 20 20" fill="none" xmlns="http://www.w3.org/2000/svg">
<path d="M16.2751 4.60869C16.5192 4.36461 16.5192 3.96888 16.2751 3.72481C16.0311 3.48073 15.6353 3.48073 15.3913 3.72481L9.99985 9.11621L4.60845 3.72481C4.36437 3.48073 3.96864 3.48073 3.72456 3.72481C3.48048 3.96889 3.48048 4.36461 3.72456 4.60869L9.11596 10.0001L3.72458 15.3915C3.48051 15.6356 3.48051 16.0313 3.72458 16.2754C3.96866 16.5194 4.36439 16.5194 4.60847 16.2754L9.99985 10.884L15.3912 16.2754C15.6353 16.5194 16.031 16.5194 16.2751 16.2754C16.5192 16.0313 16.5192 15.6356 16.2751 15.3915L10.8837 10.0001L16.2751 4.60869Z" fill="#AEBECC"/>
</svg>
