<svg width="25" height="24" viewBox="0 0 25 24" fill="none" xmlns="http://www.w3.org/2000/svg">
<path d="M7.70526 2.25C7.27244 2.24995 6.87561 2.24991 6.5528 2.29331C6.19732 2.3411 5.82159 2.45355 5.51257 2.76257C5.20355 3.07159 5.0911 3.44732 5.04331 3.8028C4.99991 4.12561 4.99995 4.52244 5 4.95526L5.00001 21C5.00001 21.4142 5.33579 21.75 5.75001 21.75C6.16422 21.75 6.50001 21.4142 6.50001 21L6.50001 14.75H17.9479C19.3574 14.75 20.5 13.6074 20.5 12.1979C20.5 11.3576 20.0863 10.571 19.3938 10.0949L19.1125 9.90159C18.1295 9.22575 18.1295 7.77426 19.1125 7.09842L19.3938 6.90507C20.0863 6.42897 20.5 5.64245 20.5 4.80207C20.5 3.3926 19.3574 2.25001 17.9479 2.25001L7.70526 2.25Z" fill="#AEBECC"/>
</svg>
