<svg width="24" height="24" viewBox="0 0 24 24" fill="none" xmlns="http://www.w3.org/2000/svg">
<path fill-rule="evenodd" clip-rule="evenodd" d="M3.03449 3.21565C2 4.62856 2 6.64404 2 10.675V12.825C2 16.856 2 18.8714 3.03449 20.2843C3.36859 20.7407 3.77298 21.1419 4.23283 21.4735C5.65669 22.5 7.68779 22.5 11.75 22.5C15.8122 22.5 17.8433 22.5 19.2672 21.4735C19.727 21.1419 20.1314 20.7407 20.4655 20.2843C21.5 18.8714 21.5 16.856 21.5 12.825V10.675C21.5 6.64404 21.5 4.62856 20.4655 3.21565C20.1314 2.75935 19.727 2.35806 19.2672 2.02653C17.8433 1 15.8122 1 11.75 1C7.68779 1 5.65669 1 4.23283 2.02653C3.77298 2.35806 3.36859 2.75935 3.03449 3.21565ZM7.41667 6.64375C6.96794 6.64375 6.60417 7.00472 6.60417 7.45C6.60417 7.89528 6.96794 8.25625 7.41667 8.25625H16.0833C16.5321 8.25625 16.8958 7.89528 16.8958 7.45C16.8958 7.00472 16.5321 6.64375 16.0833 6.64375H7.41667ZM7.41667 10.9438C6.96794 10.9438 6.60417 11.3047 6.60417 11.75C6.60417 12.1953 6.96794 12.5563 7.41667 12.5563H16.0833C16.5321 12.5563 16.8958 12.1953 16.8958 11.75C16.8958 11.3047 16.5321 10.9438 16.0833 10.9438H7.41667ZM7.41667 15.2438C6.96794 15.2438 6.60417 15.6047 6.60417 16.05C6.60417 16.4953 6.96794 16.8563 7.41667 16.8563H16.0833C16.5321 16.8563 16.8958 16.4953 16.8958 16.05C16.8958 15.6047 16.5321 15.2438 16.0833 15.2438H7.41667Z" fill="#AEBECC"/>
</svg>
