<svg width="24" height="24" viewBox="0 0 24 24" fill="none" xmlns="http://www.w3.org/2000/svg">
<path d="M4.10786 21.0038L4.55443 20.4013L4.55443 20.4013L4.10786 21.0038ZM2.97659 19.8498L2.3657 20.2849L2.3657 20.2849L2.97659 19.8498ZM18.3008 21.0038L17.8542 20.4013L17.8542 20.4013L18.3008 21.0038ZM19.432 19.8498L18.8211 19.4147L18.8211 19.4147L19.432 19.8498ZM2.97659 5.37211L2.3657 4.937L2.3657 4.937L2.97659 5.37211ZM4.10786 4.21813L4.55443 4.82069L4.55443 4.82069L4.10786 4.21813ZM9.16808 3.9794C9.58226 3.97434 9.91391 3.63447 9.90885 3.22029C9.90379 2.80611 9.56392 2.47445 9.14974 2.47952L9.16808 3.9794ZM21.1512 14.7062C21.1561 14.2921 20.8242 13.9523 20.4101 13.9475C19.9959 13.9426 19.6562 14.2744 19.6513 14.6886L21.1512 14.7062ZM12.02 16.7885L11.9355 16.0433L12.02 16.7885ZM7.80666 16.4782L7.27109 17.0032L7.27109 17.0032L7.80666 16.4782ZM7.50243 12.1803L8.24802 12.2615L7.50243 12.1803ZM8.67558 9.69045L8.14001 9.16542L8.14001 9.16542L8.67558 9.69045ZM7.77103 10.7795L7.09257 10.4598L7.09257 10.4598L7.77103 10.7795ZM14.4609 15.5918L14.9964 16.1169L14.9964 16.1169L14.4609 15.5918ZM13.3932 16.5145L13.7234 17.188L13.7234 17.188L13.3932 16.5145ZM11.2043 21.25C9.26985 21.25 7.88044 21.2489 6.80446 21.13C5.74342 21.0128 5.07678 20.7884 4.55443 20.4013L3.66129 21.6064C4.48311 22.2154 5.44727 22.4892 6.63969 22.6209C7.81718 22.7511 9.30392 22.75 11.2043 22.75V21.25ZM1.25 12.611C1.25 14.5505 1.24901 16.0642 1.37627 17.2624C1.50493 18.4737 1.77163 19.4509 2.3657 20.2849L3.58748 19.4147C3.20496 18.8777 2.98337 18.1913 2.86788 17.1039C2.75099 16.0034 2.75 14.5833 2.75 12.611H1.25ZM4.55443 20.4013C4.18394 20.1267 3.85752 19.7939 3.58748 19.4147L2.3657 20.2849C2.72647 20.7915 3.16357 21.2375 3.66129 21.6064L4.55443 20.4013ZM11.2043 22.75C13.1047 22.75 14.5914 22.7511 15.7689 22.6209C16.9613 22.4892 17.9255 22.2154 18.7473 21.6064L17.8542 20.4013C17.3318 20.7884 16.6652 21.0128 15.6042 21.13C14.5282 21.2489 13.1388 21.25 11.2043 21.25V22.75ZM18.8211 19.4147C18.5511 19.7939 18.2247 20.1267 17.8542 20.4013L18.7473 21.6064C19.245 21.2375 19.6822 20.7915 20.0429 20.2849L18.8211 19.4147ZM2.75 12.611C2.75 10.6387 2.75099 9.21853 2.86788 8.118C2.98337 7.03064 3.20496 6.34427 3.58748 5.80721L2.3657 4.937C1.77163 5.77109 1.50493 6.74823 1.37627 7.95957C1.24901 9.15773 1.25 10.6714 1.25 12.611H2.75ZM3.66129 3.61558C3.16357 3.98445 2.72647 4.43049 2.3657 4.937L3.58748 5.80721C3.85752 5.42808 4.18394 5.09527 4.55443 4.82069L3.66129 3.61558ZM9.14974 2.47952C6.66691 2.50987 4.96561 2.64891 3.66129 3.61558L4.55443 4.82069C5.41114 4.18577 6.61173 4.01066 9.16808 3.9794L9.14974 2.47952ZM19.6513 14.6886C19.6207 17.2962 19.4491 18.533 18.8211 19.4147L20.0429 20.2849C20.985 18.9623 21.1214 17.2389 21.1512 14.7062L19.6513 14.6886ZM19.419 9.46279L13.9253 15.0668L14.9964 16.1169L20.4902 10.5129L19.419 9.46279ZM9.21115 10.2155L14.7049 4.61149L13.6338 3.56141L8.14001 9.16542L9.21115 10.2155ZM11.9355 16.0433C10.739 16.1789 9.92444 16.2693 9.31914 16.2494C8.73591 16.2301 8.49673 16.1107 8.34224 15.9532L7.27109 17.0032C7.81173 17.5547 8.50648 17.7234 9.26976 17.7485C10.011 17.773 10.9555 17.664 12.1044 17.5337L11.9355 16.0433ZM6.75684 12.0991C6.62903 13.2725 6.52271 14.2322 6.54652 14.9843C6.57091 15.7546 6.73344 16.4548 7.27109 17.0032L8.34224 15.9532C8.18475 15.7925 8.06487 15.54 8.04577 14.9368C8.0261 14.3154 8.11524 13.4806 8.24802 12.2615L6.75684 12.0991ZM8.14001 9.16542C7.67274 9.64206 7.30997 9.9984 7.09257 10.4598L8.44949 11.0992C8.53388 10.9201 8.67355 10.7639 9.21115 10.2155L8.14001 9.16542ZM8.24802 12.2615C8.33196 11.4909 8.36452 11.2795 8.44949 11.0992L7.09257 10.4598C6.87575 10.92 6.82984 11.4289 6.75684 12.0991L8.24802 12.2615ZM13.9253 15.0668C13.3864 15.6165 13.2348 15.7569 13.0631 15.8411L13.7234 17.188C14.1796 16.9643 14.5304 16.5922 14.9964 16.1169L13.9253 15.0668ZM12.1044 17.5337C12.7592 17.4595 13.2659 17.4122 13.7234 17.188L13.0631 15.8411C12.8926 15.9247 12.6931 15.9574 11.9355 16.0433L12.1044 17.5337ZM19.419 4.61149C20.1156 5.322 20.5843 5.80237 20.8881 6.20853C21.1785 6.5968 21.25 6.8304 21.25 7.03714H22.75C22.75 6.37964 22.4806 5.83338 22.0892 5.3101C21.7112 4.80472 21.1572 4.24186 20.4902 3.56142L19.419 4.61149ZM20.4902 10.5129C21.1572 9.83241 21.7112 9.26955 22.0892 8.76417C22.4806 8.2409 22.75 7.69463 22.75 7.03714H21.25C21.25 7.24388 21.1785 7.47747 20.8881 7.86574C20.5843 8.2719 20.1156 8.75227 19.419 9.46279L20.4902 10.5129ZM20.4902 3.56142C19.8233 2.88117 19.2713 2.31576 18.7753 1.92974C18.2626 1.53076 17.7201 1.25 17.062 1.25V2.75C17.251 2.75 17.473 2.81699 17.854 3.11348C18.2516 3.42295 18.7223 3.90076 19.419 4.61149L20.4902 3.56142ZM14.7049 4.61149C15.4016 3.90076 15.8723 3.42295 16.2699 3.11348C16.6509 2.81699 16.8729 2.75 17.062 2.75V1.25C16.4038 1.25 15.8613 1.53076 15.3486 1.92974C14.8527 2.31576 14.3006 2.88117 13.6338 3.56141L14.7049 4.61149ZM20.4902 9.46279L14.7049 3.56141L13.6338 4.61149L19.419 10.5129L20.4902 9.46279Z" fill="#AEBECC"/>
</svg>
