<svg width="24" height="24" viewBox="0 0 24 24" fill="none" xmlns="http://www.w3.org/2000/svg">
<path fill-rule="evenodd" clip-rule="evenodd" d="M6.95524 2.25C6.97012 2.25001 6.98503 2.25001 6.99999 2.25001H17.1979C18.6074 2.25001 19.75 3.3926 19.75 4.80207C19.75 5.64245 19.3363 6.42897 18.6437 6.90507L18.3625 7.09842C17.3795 7.77426 17.3795 9.22575 18.3625 9.90159L18.6437 10.0949C19.3363 10.571 19.75 11.3576 19.75 12.1979C19.75 13.6074 18.6074 14.75 17.1979 14.75H5.74999L5.74999 21C5.74999 21.4142 5.4142 21.75 4.99999 21.75C4.58578 21.75 4.24999 21.4142 4.24999 21L4.24999 5.00001C4.24999 4.98505 4.24999 4.97013 4.24999 4.95526C4.24994 4.52244 4.24989 4.12561 4.29329 3.8028C4.34108 3.44732 4.45353 3.07159 4.76255 2.76257C5.07158 2.45355 5.4473 2.3411 5.80278 2.29331C6.1256 2.24991 6.52243 2.24995 6.95524 2.25ZM5.74999 13.25H17.1979C17.779 13.25 18.25 12.779 18.25 12.1979C18.25 11.8515 18.0794 11.5273 17.794 11.331L17.5127 11.1377C15.6627 9.86579 15.6627 7.13422 17.5127 5.86236L17.794 5.66901C18.0794 5.47274 18.25 5.14851 18.25 4.80207C18.25 4.22103 17.779 3.75001 17.1979 3.75001H6.99999C6.50738 3.75001 6.21338 3.7516 6.00266 3.77993C5.9061 3.79291 5.85774 3.80821 5.83596 3.81717C5.83091 3.81924 5.8276 3.82086 5.82566 3.82187L5.82323 3.82324L5.82185 3.82568C5.82084 3.82761 5.81923 3.83093 5.81715 3.83597C5.80819 3.85775 5.7929 3.90611 5.77992 4.00267C5.75158 4.21339 5.74999 4.5074 5.74999 5.00001L5.74999 13.25Z" fill="#AEBECC"/>
</svg>
