<svg width="24" height="24" viewBox="0 0 24 24" fill="none" xmlns="http://www.w3.org/2000/svg">
<path d="M21.07 7.6569L14.31 2.63095C12.91 1.78995 11.1 1.78995 9.65 2.66098L2.93 7.66692C2.35 8.09743 2 8.80827 2 9.54915C2 10.3901 2.42 11.1711 3.11 11.5916C3.18 11.6316 3.3 11.7317 3.32 11.8919L4.18 18.8201C4.41 20.6323 5.9 22.0039 7.66 22.0039H16.35C18.11 22.0039 19.6 20.6323 19.83 18.8201L20.7 11.8519C20.72 11.7017 20.83 11.6016 20.89 11.5615C21.58 11.101 22 10.3201 22 9.52912C22 8.78825 21.65 8.0774 21.07 7.64689V7.6569ZM14.88 20.7624H9.13V16.3172C9.13 15.0056 10.42 13.9343 12.01 13.9343C13.6 13.9343 14.89 15.0056 14.89 16.3172V20.7624H14.88ZM20.2 10.5303C19.79 10.8006 19.52 11.2311 19.46 11.7117L18.59 18.68C18.44 19.8714 17.48 20.7624 16.35 20.7624H16.13V16.3172C16.13 14.3148 14.28 12.6929 12.01 12.6929C9.74 12.6929 7.89 14.3248 7.89 16.3172V20.7624H7.68C6.55 20.7624 5.59 19.8614 5.44 18.67L4.58 11.7417C4.52 11.2412 4.23 10.8006 3.78 10.5303C3.46 10.3301 3.26 9.95963 3.26 9.54915C3.26 9.19873 3.42 8.86834 3.69 8.6681L10.35 3.70222C10.86 3.39185 11.45 3.24167 12.03 3.24167C12.61 3.24167 13.15 3.38184 13.62 3.67218L20.32 8.6681C20.59 8.86834 20.75 9.19873 20.75 9.54915C20.75 9.9296 20.53 10.3201 20.2 10.5403V10.5303Z" fill="#AEBECC"/>
<path d="M11.9999 15.6768C11.6499 15.6768 11.3799 15.9569 11.3799 16.2971V18.2981C11.3799 18.6382 11.6599 18.9184 11.9999 18.9184C12.3399 18.9184 12.6199 18.6382 12.6199 18.2981V16.2971C12.6199 15.9569 12.3399 15.6768 11.9999 15.6768Z" fill="#AEBECC"/>
</svg>
