<svg width="24" height="24" viewBox="0 0 24 24" fill="none" xmlns="http://www.w3.org/2000/svg">
<path d="M21.07 7.6463L14.31 2.6263C12.91 1.7863 11.1 1.7863 9.65 2.6563L2.93 7.6563C2.35 8.0863 2 8.7963 2 9.5363C2 10.3763 2.42 11.1563 3.11 11.5763C3.18 11.6163 3.3 11.7163 3.32 11.8763L4.18 18.8063C4.41 20.6163 5.9 21.9863 7.66 21.9863H16.35C18.11 21.9863 19.6 20.6163 19.83 18.8063L20.7 11.8363C20.72 11.6863 20.83 11.5863 20.89 11.5463C21.58 11.0863 22 10.3063 22 9.5163C22 8.7763 21.65 8.0663 21.07 7.6363V7.6463ZM16.1 21.9963H7.9V16.3663C7.9 14.3363 9.74 12.6963 12 12.6963C14.26 12.6963 16.1 14.3463 16.1 16.3663V21.9963Z" fill="#AEBECC"/>
<path d="M12 15.6663C11.65 15.6663 11.38 15.9463 11.38 16.2863V18.2863C11.38 18.6263 11.66 18.9063 12 18.9063C12.34 18.9063 12.62 18.6263 12.62 18.2863V16.2863C12.62 15.9463 12.34 15.6663 12 15.6663Z" fill="#AEBECC"/>
</svg>
