<svg width="24" height="24" viewBox="0 0 24 24" fill="none" xmlns="http://www.w3.org/2000/svg">
<path d="M12.7692 12.9302C12.7692 12.5449 12.4248 12.2325 12 12.2325C11.5752 12.2325 11.2308 12.5449 11.2308 12.9302V16.6511C11.2308 17.0365 11.5752 17.3488 12 17.3488C12.4248 17.3488 12.7692 17.0365 12.7692 16.6511V12.9302Z" fill="#404B59"/>
<path fill-rule="evenodd" clip-rule="evenodd" d="M12 2C8.74295 2 6.10258 4.39475 6.10258 7.34883V7.83516L6.07505 7.84318C4.27965 8.37227 2.87203 9.64895 2.28867 11.2773C1.99957 12.0843 1.99974 13.0529 2.00002 14.6401V14.9412C1.99974 16.5285 1.99957 17.497 2.28867 18.304C2.87203 19.9324 4.27965 21.2091 6.07505 21.7382C6.96481 22.0004 8.03271 22.0002 9.78271 22H14.2173C15.9673 22.0002 17.0352 22.0004 17.925 21.7382C19.7204 21.2091 21.128 19.9324 21.7113 18.304C22.0004 17.497 22.0003 16.5285 22 14.9412V14.6401C22.0003 13.0529 22.0004 12.0843 21.7113 11.2773C21.128 9.64895 19.7204 8.37227 17.925 7.84318L17.8974 7.83516V7.34883C17.8974 4.39475 15.2571 2 12 2ZM9.86259 7.58139C8.96086 7.58135 8.24115 7.58133 7.64104 7.61214V7.34883C7.64104 5.16538 9.59261 3.39535 12 3.39535C14.4074 3.39535 16.359 5.16538 16.359 7.34883V7.61214C15.7589 7.58133 15.0391 7.58135 14.1374 7.58139H9.86259ZM6.9996 9.07282C7.61252 8.97917 8.43914 8.97673 9.94873 8.97673H14.0513C15.5609 8.97673 16.3875 8.97917 17.0004 9.07282C17.1699 9.09872 17.316 9.13089 17.4495 9.17023C18.7766 9.5613 19.817 10.5049 20.2482 11.7085C20.452 12.2776 20.4615 13.005 20.4615 14.7907C20.4615 16.5764 20.452 17.3038 20.2482 17.8728C19.817 19.0764 18.7766 20.0201 17.4495 20.4111C16.8222 20.596 16.0201 20.6046 14.0513 20.6046H9.94873C7.97985 20.6046 7.17785 20.596 6.55046 20.4111C5.22343 20.0201 4.18301 19.0764 3.75183 17.8728C3.54798 17.3038 3.53849 16.5764 3.53849 14.7907C3.53849 13.005 3.54798 12.2776 3.75183 11.7085C4.18301 10.5049 5.22342 9.5613 6.55046 9.17023C6.68397 9.13089 6.83012 9.09872 6.9996 9.07282Z" fill="#404B59"/>
</svg>
