<svg width="25" height="24" viewBox="0 0 25 24" fill="none" xmlns="http://www.w3.org/2000/svg">
<path fill-rule="evenodd" clip-rule="evenodd" d="M4.20491 3.57127C3.25 4.88559 3.25 6.76046 3.25 10.5102V12.5102C3.25 16.2599 3.25 18.1348 4.20491 19.4491C4.51331 19.8736 4.8866 20.2469 5.31107 20.5553C6.6254 21.5102 8.50027 21.5102 12.25 21.5102C15.9997 21.5102 17.8746 21.5102 19.1889 20.5553C19.6134 20.2469 19.9867 19.8736 20.2951 19.4491C21.25 18.1348 21.25 16.2599 21.25 12.5102V10.5102C21.25 6.76046 21.25 4.88559 20.2951 3.57127C19.9867 3.14679 19.6134 2.77351 19.1889 2.46511C17.8746 1.51019 15.9997 1.51019 12.25 1.51019C8.50027 1.51019 6.6254 1.51019 5.31107 2.46511C4.8866 2.77351 4.51331 3.14679 4.20491 3.57127ZM8.25 6.76019C7.83579 6.76019 7.5 7.09598 7.5 7.51019C7.5 7.92441 7.83579 8.26019 8.25 8.26019H16.25C16.6642 8.26019 17 7.92441 17 7.51019C17 7.09598 16.6642 6.76019 16.25 6.76019H8.25ZM8.25 10.7602C7.83579 10.7602 7.5 11.096 7.5 11.5102C7.5 11.9244 7.83579 12.2602 8.25 12.2602H16.25C16.6642 12.2602 17 11.9244 17 11.5102C17 11.096 16.6642 10.7602 16.25 10.7602H8.25ZM8.25 14.7602C7.83579 14.7602 7.5 15.096 7.5 15.5102C7.5 15.9244 7.83579 16.2602 8.25 16.2602H16.25C16.6642 16.2602 17 15.9244 17 15.5102C17 15.096 16.6642 14.7602 16.25 14.7602H8.25Z" fill="#AEBECC"/>
</svg>
