<svg width="24" height="24" viewBox="0 0 24 24" fill="none" xmlns="http://www.w3.org/2000/svg">
<mask id="path-1-inside-1_3_188" fill="white">
<path d="M22 9.45167V9.45049C22 9.45049 22 9.44991 22 9.44932V9.44815C22 9.44815 22 9.44756 22 9.44697C22 9.44697 22 9.44639 22 9.4458C22 9.4458 22 9.44521 22 9.44463C22 9.44463 22 9.44404 22 9.44345C22 9.44287 22 9.44287 22 9.44228C22 9.44228 22 9.44169 22 9.44111C22 9.44111 22 9.44052 22 9.43993C22 9.43935 22 9.43935 22 9.43876C22 9.43876 22 9.43817 22 9.43759C22 9.43759 22 9.437 22 9.43642C22 9.43642 22 9.43583 22 9.43524C22 9.43524 22 9.43466 22 9.43407V9.4329C22 9.4329 22 9.43231 22 9.43172C22 9.43172 22 9.43114 22 9.43055C22 9.43055 22 9.42996 22 9.42938C22 9.42938 22 9.42879 22 9.4282C22 9.4282 22 9.42762 22 9.42703C22 9.42703 22 9.42644 22 9.42586C22 9.42586 22 9.42527 22 9.42468C22 9.42468 22 9.4241 22 9.42351C22 9.42351 22 9.42292 22 9.42234C22 9.42234 22 9.42175 22 9.42116C22 9.42116 22 9.42058 22 9.41999C22 9.41999 22 9.4194 22 9.41882C22 9.41882 22 9.41823 22 9.41764C22 9.41764 22 9.41706 22 9.41647C22 9.41588 22 9.41588 22 9.4153C22 9.4153 22 9.41471 22 9.41412C21.9965 9.32027 21.9912 9.22701 21.983 9.13433C21.9748 9.04165 21.9648 8.94955 21.9525 8.85805C21.9402 8.76654 21.9255 8.67621 21.9091 8.58646C21.8921 8.49672 21.8733 8.40756 21.8528 8.31898C21.8317 8.23041 21.8088 8.14301 21.7836 8.05619C21.7583 7.96938 21.7313 7.88374 21.702 7.79869C21.6727 7.71363 21.6416 7.62975 21.6088 7.54646C21.5759 7.46316 21.5407 7.38163 21.5038 7.30009C21.4668 7.21915 21.4281 7.13878 21.3876 7.06018C21.3471 6.98099 21.3049 6.90357 21.2609 6.82672C21.2169 6.74988 21.1712 6.67421 21.1237 6.59972C21.0761 6.52522 21.0269 6.4519 20.9758 6.38034C20.9248 6.30819 20.8726 6.2378 20.818 6.168C20.7635 6.09819 20.7084 6.03015 20.6509 5.96387C20.5934 5.89758 20.5347 5.83189 20.4743 5.76795C20.4139 5.70401 20.3523 5.64125 20.2889 5.58024C20.2256 5.51924 20.1611 5.45941 20.0954 5.40134C20.0291 5.34327 19.9622 5.28637 19.8936 5.23182C19.825 5.17726 19.7552 5.1233 19.6836 5.07168C19.612 5.02006 19.5399 4.96962 19.466 4.92093C19.3921 4.87224 19.3176 4.82532 19.2413 4.78074C19.1651 4.73616 19.0882 4.69216 19.0096 4.65052C18.931 4.60887 18.8518 4.56898 18.7715 4.53144C18.6911 4.4939 18.6096 4.45753 18.5269 4.42351C18.4442 4.38949 18.3609 4.35723 18.2764 4.32672C18.1919 4.29622 18.1069 4.26807 18.0206 4.24226C17.9344 4.21645 17.8476 4.19181 17.7596 4.16952C17.6716 4.14723 17.5831 4.12729 17.4933 4.1091C17.4036 4.09092 17.3138 4.07508 17.2229 4.06159C17.132 4.0481 17.0405 4.03637 16.9478 4.02757C16.8557 4.01818 16.7624 4.01115 16.6692 4.00704C16.5759 4.00235 16.4815 4 16.387 4C16.3407 4 16.2943 4 16.248 4.00176C16.2017 4.00352 16.1553 4.00469 16.1096 4.00704C16.0632 4.00939 16.0175 4.01232 15.9717 4.01525C15.926 4.01877 15.8802 4.02229 15.8345 4.02698C15.7887 4.03168 15.7435 4.03637 15.6978 4.04223C15.652 4.0481 15.6069 4.05397 15.5617 4.06042C15.5165 4.06687 15.4714 4.0745 15.4268 4.08212C15.3822 4.08975 15.337 4.09796 15.2925 4.10676C15.2479 4.11556 15.2033 4.12494 15.1593 4.13491C15.1147 4.14489 15.0707 4.15486 15.0267 4.166C14.9828 4.17715 14.9388 4.18829 14.8954 4.20061C14.8519 4.21234 14.808 4.22525 14.7651 4.23815C14.7217 4.25106 14.6789 4.26455 14.6355 4.27863C14.5927 4.2927 14.5499 4.30737 14.507 4.32262C14.4642 4.33787 14.422 4.35312 14.3798 4.36954C14.3375 4.38538 14.2959 4.40239 14.2536 4.4194C14.212 4.43641 14.1703 4.45401 14.1293 4.4722C14.0882 4.49038 14.0466 4.50915 14.0061 4.52851C13.965 4.54786 13.9246 4.56722 13.8841 4.58775C13.8436 4.6077 13.8037 4.62881 13.7633 4.64993C13.7228 4.67105 13.6835 4.69275 13.6442 4.71504C13.6049 4.73733 13.5656 4.75962 13.5263 4.78308C13.4876 4.80596 13.4489 4.83001 13.4101 4.85406C13.3714 4.87811 13.3333 4.90275 13.2958 4.92797C13.2582 4.95319 13.2201 4.97841 13.1831 5.00481C13.1456 5.03062 13.1086 5.0576 13.0717 5.08458C13.0347 5.11157 12.9984 5.13914 12.962 5.16729C12.9256 5.19545 12.8898 5.2236 12.8541 5.25293C12.8183 5.28168 12.7831 5.311 12.7479 5.34092C12.7127 5.37084 12.6781 5.40134 12.6441 5.43184C12.61 5.46234 12.5754 5.49402 12.542 5.52569C12.5086 5.55737 12.4751 5.58963 12.4417 5.62248C12.4341 5.6301 12.4264 5.63714 12.4182 5.64418C12.4106 5.65122 12.4024 5.65826 12.3942 5.66471C12.386 5.67116 12.3778 5.67762 12.3695 5.68348C12.3613 5.68935 12.3525 5.69521 12.3437 5.70108C12.3349 5.70695 12.3261 5.71222 12.3173 5.7175C12.3085 5.72278 12.2997 5.72748 12.2904 5.73217C12.2816 5.73686 12.2722 5.74155 12.2628 5.74566C12.2534 5.74977 12.244 5.75387 12.2346 5.75739C12.2252 5.76091 12.2159 5.76443 12.2065 5.76795C12.1971 5.77147 12.1871 5.7744 12.1777 5.77733C12.1683 5.78027 12.1584 5.78261 12.1484 5.78496C12.1384 5.78731 12.129 5.78965 12.1191 5.79141C12.1091 5.79317 12.0991 5.79493 12.0897 5.79611C12.0798 5.79728 12.0698 5.79845 12.0598 5.79962C12.0499 5.8008 12.0399 5.80138 12.0299 5.80197C12.0199 5.80197 12.01 5.80256 12 5.80256C11.99 5.80256 11.9801 5.80256 11.9701 5.80197C11.9601 5.80197 11.9501 5.8008 11.9402 5.79962C11.9302 5.79845 11.9202 5.79728 11.9103 5.79611C11.9003 5.79493 11.8903 5.79317 11.8809 5.79141C11.871 5.78965 11.8616 5.78731 11.8516 5.78496C11.8416 5.78261 11.8322 5.78027 11.8223 5.77733C11.8123 5.7744 11.8029 5.77147 11.7935 5.76795C11.7841 5.76443 11.7748 5.76091 11.7654 5.75739C11.756 5.75387 11.7466 5.74977 11.7372 5.74566C11.7278 5.74155 11.719 5.73686 11.7096 5.73217C11.7008 5.72748 11.6915 5.72278 11.6827 5.7175C11.6739 5.71222 11.6651 5.70695 11.6563 5.70108C11.6475 5.69521 11.6393 5.68935 11.6305 5.68348C11.6217 5.67762 11.614 5.67116 11.6058 5.66471C11.5976 5.65826 11.5894 5.65122 11.5818 5.64418C11.5741 5.63714 11.5659 5.6301 11.5583 5.62248C11.5255 5.58963 11.492 5.55737 11.458 5.52569C11.4246 5.49402 11.39 5.46293 11.3559 5.43184C11.3213 5.40075 11.2867 5.37084 11.2521 5.34092C11.2175 5.311 11.1817 5.28168 11.1459 5.25293C11.1102 5.22419 11.0744 5.19545 11.038 5.16729C11.0016 5.13914 10.9653 5.11157 10.9283 5.08458C10.8914 5.0576 10.8544 5.03121 10.8169 5.00481C10.7793 4.979 10.7418 4.95319 10.7042 4.92797C10.6667 4.90275 10.628 4.87811 10.5899 4.85406C10.5511 4.83001 10.5124 4.80655 10.4737 4.78308C10.435 4.76021 10.3957 4.73733 10.3558 4.71504C10.3165 4.69275 10.2766 4.67105 10.2367 4.64993C10.1969 4.62881 10.1564 4.60828 10.1159 4.58775C10.0754 4.56781 10.035 4.54786 9.9939 4.52851C9.95284 4.50915 9.91178 4.49038 9.87072 4.4722C9.82966 4.45401 9.78801 4.43641 9.74636 4.4194C9.70472 4.40239 9.66248 4.38538 9.62025 4.36954C9.57802 4.35371 9.53578 4.33787 9.49296 4.32262C9.45014 4.30737 9.40791 4.2927 9.3645 4.27863C9.32109 4.26455 9.27827 4.25106 9.23487 4.23815C9.19146 4.22525 9.14805 4.21293 9.10465 4.20061C9.06124 4.18888 9.01725 4.17715 8.97325 4.166C8.92926 4.15486 8.88527 4.14489 8.84069 4.13491C8.79611 4.12494 8.75211 4.11556 8.70753 4.10676C8.66295 4.09796 8.61837 4.08975 8.5732 4.08212C8.52862 4.0745 8.48346 4.06746 8.43829 4.06042C8.39313 4.05397 8.34796 4.04751 8.30221 4.04223C8.25645 4.03695 8.21129 4.03168 8.16553 4.02698C8.11978 4.02229 8.07403 4.01877 8.02827 4.01525C7.98252 4.01173 7.93618 4.00939 7.89043 4.00704C7.84409 4.00469 7.79833 4.00293 7.75199 4.00176C7.70565 4.00059 7.65932 4 7.61298 4C7.51854 4 7.4241 4.00235 7.33083 4.00704C7.23756 4.01173 7.1443 4.01877 7.05221 4.02757C6.96011 4.03695 6.86802 4.0481 6.7771 4.06159C6.68618 4.07508 6.59585 4.09092 6.50669 4.1091C6.41694 4.12729 6.32837 4.14723 6.24038 4.16952C6.15239 4.19181 6.06558 4.21586 5.97935 4.24226C5.89313 4.26865 5.80807 4.29681 5.7236 4.32672C5.63914 4.35723 5.55584 4.3889 5.47313 4.42351C5.39043 4.45753 5.30889 4.4939 5.22853 4.53144C5.14817 4.56898 5.0684 4.60887 4.99038 4.65052C4.91178 4.69216 4.83494 4.73557 4.75868 4.78074C4.68243 4.8259 4.60793 4.87283 4.53402 4.92093C4.46011 4.96962 4.38796 5.01947 4.3164 5.07168C4.24542 5.1233 4.17504 5.17726 4.10641 5.23182C4.03778 5.28637 3.97032 5.34327 3.90462 5.40134C3.83834 5.45941 3.77382 5.51924 3.71105 5.58024C3.64829 5.64125 3.58611 5.70401 3.52569 5.76795C3.46527 5.83189 3.40662 5.89758 3.34913 5.96387C3.29165 6.03015 3.23592 6.09878 3.18196 6.168C3.12799 6.23721 3.0752 6.30819 3.02417 6.38034C2.97313 6.45249 2.92386 6.52581 2.87635 6.59972C2.82884 6.67421 2.78308 6.74988 2.73909 6.82672C2.6951 6.90357 2.65286 6.98158 2.61239 7.06018C2.57191 7.13937 2.5332 7.21915 2.49625 7.30009C2.45929 7.38104 2.42468 7.46316 2.39125 7.54646C2.3584 7.62975 2.32731 7.71363 2.29798 7.79869C2.26865 7.88374 2.24167 7.96938 2.21645 8.05619C2.19122 8.14301 2.16835 8.23041 2.14723 8.31898C2.12611 8.40756 2.10734 8.49672 2.09092 8.58646C2.07391 8.67621 2.05983 8.76713 2.04751 8.85805C2.03519 8.94955 2.02522 9.04165 2.01701 9.13433C2.0088 9.22701 2.00352 9.32027 2 9.41412V9.4153V9.41647V9.41764V9.41882V9.41999V9.42116V9.42234V9.42351V9.42468V9.42586V9.42703V9.4282V9.42938V9.43055V9.43172V9.4329V9.43407V9.43524V9.43642V9.43759V9.43876V9.43993V9.44111V9.44228V9.44345V9.44463V9.4458C2 9.4458 2 9.44697 2 9.44756C2 9.44756 2 9.44873 2 9.44932C2 9.44932 2 9.45049 2 9.45108C2 9.45108 2 9.45225 2 9.45284C2 9.45284 2 9.45401 2 9.4546V9.45988C2 9.45988 2 9.46164 2 9.46222V9.46457C2 9.46457 2 9.46633 2 9.46692C2 9.4675 2 9.46868 2 9.46926C2 9.46985 2 9.47102 2 9.47161C2 9.4722 2 9.47337 2 9.47396C2 9.47454 2 9.47572 2 9.4763C2 9.47689 2 9.47806 2 9.47865C2 9.47924 2 9.48041 2 9.48099C2 9.48158 2 9.48275 2 9.48334C2 9.48393 2 9.4851 2 9.48569C2 9.48627 2 9.48745 2 9.48803C2 9.48862 2 9.48979 2 9.49038C2 9.49097 2 9.49214 2 9.49273C2 9.49331 2 9.49449 2 9.49507C2 9.49566 2 9.49683 2 9.49742C2 9.49801 2 9.49918 2 9.49977C2 9.50035 2 9.50153 2 9.50211C2 9.5027 2 9.50387 2 9.50446C2 9.50504 2 9.50622 2 9.5068C2 9.50739 2 9.50856 2 9.50915C2 9.50974 2 9.51091 2 9.5115C2 9.51208 2 9.51326 2 9.51384C2 9.51443 2 9.5156 2 9.51619C2 9.51678 2 9.51795 2 9.51854C2 9.51912 2 9.5203 2 9.52088C2 9.52147 2 9.52264 2 9.52323C2 9.52382 2 9.52499 2 9.52558C2 9.52616 2 9.52733 2 9.52792C2 9.52851 2 9.52968 2 9.53027C2 9.53085 2 9.53203 2 9.53261C2 9.5332 2 9.53437 2 9.53496C2 9.53555 2 9.53672 2 9.53731C2 9.53789 2 9.53907 2 9.53965C2 9.54024 2 9.54141 2 9.542C2 9.54259 2 9.54376 2 9.54435C2 9.54493 2 9.54611 2 9.54669C2 9.54728 2 9.54845 2 9.54904C2 9.54962 2 9.5508 2 9.55138C2 9.55197 2 9.55314 2 9.55373C2 9.55432 2 9.55549 2 9.55608C2 9.55666 2 9.55784 2 9.55842C2 9.55901 2 9.56018 2 9.56077C2 9.56136 2 9.56253 2 9.56312C2 9.5637 2 9.56488 2 9.56546C2 9.56605 2 9.56722 2 9.56781V9.57016C2 9.57016 2 9.57191 2 9.5725C2 9.57309 2 9.57426 2 9.57485C2 9.57543 2 9.57661 2 9.57719C2 9.57778 2 9.57895 2 9.57954C2 9.58013 2 9.5813 2 9.58189C2 9.58247 2 9.58365 2 9.58423C2 9.58482 2 9.58599 2 9.58658C2 9.58717 2 9.58834 2 9.58893C2 9.58951 2 9.59069 2 9.59127C2 9.59186 2 9.59303 2 9.59362C2 9.5942 2 9.59538 2 9.59596V9.59831C2 9.59831 2 9.60007 2 9.60066V9.60652V9.6077V9.60887V9.61004C2 9.61004 2 9.61063 2 9.61122C2 9.61122 2 9.6118 2 9.61239C2 9.61239 2 9.61298 2 9.61356C2 9.61356 2 9.61415 2 9.61474C2 9.61474 2 9.61532 2 9.61591C2 9.61591 2 9.6165 2 9.61708C2 9.61708 2 9.61767 2 9.61825C2 9.61825 2 9.61884 2 9.61943V9.6206C2 9.6206 2 9.62119 2 9.62177C2 9.62177 2 9.62236 2 9.62295C2 9.62353 2 9.62353 2 9.62412C2 9.62412 2 9.62471 2 9.62529C2 9.62529 2 9.62588 2 9.62647C2 9.62647 2 9.62705 2 9.62764C2 9.62764 2 9.62823 2 9.62881C2 9.62881 2 9.6294 2 9.62999V9.63116C2 9.63116 2 9.63175 2 9.63233C2 9.63233 2 9.63292 2 9.63351C2 9.63351 2 9.63409 2 9.63468C2 9.63468 2 9.63527 2 9.63585C2 9.63585 2 9.63644 2 9.63703C2 9.63761 2 9.63761 2 9.6382C2 9.6382 2 9.63878 2 9.63937C2 9.63937 2 9.63996 2 9.64054C2 9.64054 2 9.64113 2 9.64172C2 9.6423 2 9.6423 2 9.64289C2.00235 9.71621 2.00528 9.78895 2.00997 9.86227C2.01466 9.93559 2.01994 10.0089 2.02698 10.0822C2.03402 10.1556 2.04223 10.2289 2.05103 10.3022C2.06042 10.3755 2.07098 10.4494 2.08212 10.5228C2.09385 10.5961 2.10676 10.67 2.12084 10.7433C2.13491 10.8166 2.15016 10.8905 2.16659 10.9645C2.18301 11.0384 2.20061 11.1123 2.21938 11.1856C2.23815 11.2595 2.25809 11.3334 2.27921 11.4073C2.30033 11.4812 2.32262 11.5551 2.34608 11.629C2.36954 11.703 2.39418 11.7769 2.41999 11.8514C2.4458 11.9253 2.47278 11.9998 2.50094 12.0737C2.52909 12.1476 2.55842 12.2221 2.58893 12.296C2.61943 12.3699 2.6511 12.4444 2.68395 12.5189C2.7168 12.5934 2.75082 12.6673 2.78602 12.7418C2.82121 12.8163 2.85758 12.8902 2.89512 12.9647C2.93266 13.0392 2.97137 13.1137 3.01126 13.1876C3.05115 13.2621 3.09221 13.3366 3.13444 13.4111C3.17668 13.4856 3.22008 13.5601 3.26466 13.6346C3.30924 13.7091 3.355 13.7836 3.40192 13.858C3.44885 13.9325 3.49695 14.007 3.54622 14.0815C3.59549 14.156 3.64594 14.2305 3.69756 14.3056C3.74918 14.3801 3.80197 14.4546 3.85594 14.5297C3.9099 14.6048 3.96504 14.6793 4.02135 14.7538C4.07766 14.8283 4.13515 14.9033 4.19381 14.9778C4.25246 15.0523 4.31229 15.1274 4.3733 15.2019C4.4343 15.2764 4.49648 15.3515 4.55983 15.426C4.62318 15.5005 4.68771 15.5756 4.7534 15.65C4.8191 15.7245 4.88597 15.7996 4.95401 15.8741C5.02206 15.9486 5.09127 16.0237 5.16107 16.0982C5.23146 16.1727 5.30303 16.2478 5.37518 16.3223C5.44791 16.3968 5.52123 16.4718 5.59632 16.5463C5.6714 16.6208 5.74707 16.6959 5.8245 16.7704C5.88667 16.8308 5.94944 16.8907 6.01279 16.9499C6.07555 17.0092 6.1389 17.0684 6.20225 17.1265C6.2656 17.1845 6.32895 17.2426 6.3923 17.3001C6.45565 17.3576 6.51959 17.4139 6.58353 17.4702C6.64747 17.5265 6.71082 17.5822 6.77475 17.6374C6.83869 17.6925 6.90263 17.7471 6.96656 17.801C7.0305 17.855 7.09444 17.9084 7.15838 17.9618C7.22231 18.0145 7.28625 18.0673 7.3496 18.119C7.41295 18.1706 7.47689 18.2222 7.54024 18.2726C7.60359 18.3231 7.66694 18.3735 7.73029 18.4228C7.79364 18.4721 7.85641 18.5214 7.91917 18.5695C7.98193 18.6176 8.0447 18.6657 8.10687 18.7126C8.16905 18.7595 8.23123 18.8064 8.29341 18.8522C8.355 18.8979 8.41659 18.9437 8.47818 18.9883C8.53918 19.0329 8.60019 19.0774 8.66061 19.1208C8.72102 19.1642 8.78144 19.2077 8.84127 19.2499C8.9011 19.2921 8.96035 19.3338 9.019 19.3754C9.07766 19.4165 9.13632 19.4569 9.19439 19.4968C9.25246 19.5367 9.30995 19.576 9.36685 19.6147C9.42374 19.6535 9.48006 19.6916 9.53578 19.7285C9.59151 19.7661 9.64664 19.8024 9.70178 19.8388C9.75634 19.8746 9.8103 19.9104 9.86368 19.945C9.91706 19.9796 9.96985 20.0136 10.0221 20.047C10.0743 20.0805 10.1253 20.1133 10.1757 20.145C10.2262 20.1773 10.276 20.2084 10.3253 20.2394C10.3746 20.2699 10.4227 20.3004 10.4702 20.3298C10.5177 20.3591 10.5646 20.3878 10.6104 20.416C10.6561 20.4442 10.7013 20.4711 10.7453 20.4981C10.7893 20.5251 10.8327 20.5503 10.8749 20.5756C10.9172 20.6008 10.9582 20.6254 10.9987 20.6489C11.0392 20.6729 11.0785 20.6958 11.1166 20.7181C11.1547 20.7404 11.1923 20.7621 11.2286 20.7832C11.2363 20.7873 11.2433 20.7914 11.2509 20.7961C11.2586 20.8002 11.2656 20.8043 11.2732 20.8084C11.2809 20.8125 11.2885 20.8166 11.2961 20.8202C11.3037 20.8243 11.3114 20.8278 11.319 20.8313C11.3266 20.8348 11.3342 20.8389 11.3419 20.8424C11.3495 20.846 11.3571 20.8495 11.3647 20.853C11.3724 20.8565 11.38 20.86 11.3882 20.863C11.3958 20.8665 11.4034 20.8694 11.4117 20.8729C11.4193 20.8759 11.4275 20.8794 11.4351 20.8823C11.4428 20.8853 11.451 20.8882 11.4586 20.8911C11.4662 20.8941 11.4744 20.897 11.4821 20.8999C11.4903 20.9029 11.4979 20.9052 11.5061 20.9081C11.5143 20.9111 11.5219 20.9134 11.5302 20.9158C11.5384 20.9181 11.546 20.921 11.5542 20.9234C11.5624 20.9257 11.57 20.9281 11.5783 20.9304C11.5865 20.9328 11.5941 20.9351 11.6023 20.9369C11.6105 20.9392 11.6187 20.941 11.6263 20.9433C11.6346 20.9451 11.6428 20.9474 11.651 20.9492C11.6592 20.951 11.6674 20.9527 11.6756 20.9545C11.6838 20.9562 11.692 20.958 11.7003 20.9598C11.7085 20.9615 11.7167 20.9627 11.7249 20.9645C11.7331 20.9662 11.7413 20.9674 11.7495 20.9686C11.7577 20.9697 11.766 20.9709 11.7742 20.9721C11.7824 20.9733 11.7906 20.9744 11.7988 20.9756C11.807 20.9768 11.8152 20.9779 11.8234 20.9785C11.8317 20.9791 11.8399 20.9803 11.8481 20.9809C11.8563 20.9815 11.8645 20.9826 11.8727 20.9832C11.8809 20.9838 11.8891 20.9844 11.8973 20.985C11.9056 20.985 11.9138 20.9862 11.922 20.9862C11.9302 20.9862 11.9384 20.9867 11.9466 20.9873C11.9548 20.9873 11.963 20.9873 11.9713 20.9879C11.9795 20.9879 11.9877 20.9879 11.9959 20.9879C12.0041 20.9879 12.0123 20.9879 12.0205 20.9879C12.0287 20.9879 12.037 20.9879 12.0452 20.9873C12.0534 20.9873 12.0616 20.9867 12.0698 20.9862C12.078 20.9862 12.0862 20.9856 12.0944 20.985C12.1027 20.985 12.1109 20.9838 12.1191 20.9832C12.1273 20.9826 12.1355 20.9821 12.1437 20.9809C12.1519 20.9797 12.1601 20.9791 12.1683 20.9785C12.1766 20.9779 12.1848 20.9768 12.193 20.9756C12.2012 20.9744 12.2094 20.9733 12.2176 20.9721C12.2258 20.9709 12.234 20.9697 12.2423 20.9686C12.2505 20.9674 12.2587 20.9656 12.2669 20.9645C12.2751 20.9627 12.2833 20.9615 12.2915 20.9598C12.2997 20.958 12.308 20.9562 12.3162 20.9545C12.3244 20.9527 12.3326 20.951 12.3408 20.9492C12.349 20.9474 12.3572 20.9457 12.3654 20.9433C12.3737 20.9416 12.3819 20.9392 12.3895 20.9369C12.3977 20.9345 12.4059 20.9328 12.4135 20.9304C12.4212 20.9281 12.4294 20.9257 12.4376 20.9234C12.4458 20.921 12.4534 20.9187 12.4616 20.9158C12.4699 20.9128 12.4775 20.9105 12.4857 20.9081C12.4939 20.9052 12.5015 20.9029 12.5097 20.8999C12.518 20.897 12.5256 20.8941 12.5332 20.8911C12.5408 20.8882 12.549 20.8853 12.5567 20.8823C12.5643 20.8794 12.5725 20.8759 12.5801 20.8729C12.5878 20.87 12.596 20.8665 12.6036 20.863C12.6112 20.8595 12.6188 20.8565 12.6271 20.853C12.6347 20.8495 12.6423 20.846 12.6499 20.8424C12.6576 20.8389 12.6652 20.8354 12.6728 20.8313C12.6804 20.8278 12.6881 20.8237 12.6957 20.8202C12.7033 20.8166 12.7109 20.8125 12.7186 20.8084C12.7262 20.8043 12.7338 20.8002 12.7408 20.7961C12.7485 20.792 12.7555 20.7879 12.7631 20.7838C12.7995 20.7627 12.8365 20.7416 12.8752 20.7187C12.9133 20.6964 12.9526 20.6735 12.9931 20.6495C13.0336 20.6254 13.0746 20.6014 13.1168 20.5761C13.1591 20.5509 13.2025 20.5251 13.2465 20.4987C13.2905 20.4723 13.3356 20.4447 13.3814 20.4166C13.4271 20.3884 13.4741 20.3597 13.5216 20.3304C13.5691 20.301 13.6172 20.2711 13.6665 20.24C13.7157 20.2095 13.7656 20.1779 13.816 20.1456C13.8665 20.1133 13.9181 20.0811 13.9697 20.0476C14.0214 20.0142 14.0747 19.9802 14.1281 19.9456C14.1815 19.911 14.2355 19.8752 14.29 19.8394C14.3446 19.8036 14.3997 19.7667 14.456 19.7291C14.5117 19.6916 14.568 19.654 14.6249 19.6153C14.6818 19.5766 14.7393 19.5373 14.7974 19.4974C14.8555 19.4575 14.9135 19.4171 14.9728 19.376C15.0314 19.3349 15.0913 19.2933 15.1505 19.2505C15.2098 19.2077 15.2702 19.1648 15.3312 19.1214C15.3916 19.078 15.4526 19.0334 15.5136 18.9889C15.5746 18.9443 15.6362 18.8985 15.6984 18.8528C15.76 18.807 15.8221 18.7601 15.8849 18.7132C15.9471 18.6662 16.0099 18.6181 16.0726 18.57C16.1354 18.5219 16.1987 18.4727 16.2615 18.4234C16.3248 18.3741 16.3882 18.3237 16.4515 18.2732C16.5149 18.2228 16.5788 18.1712 16.6422 18.1195C16.7055 18.0679 16.7695 18.0151 16.8334 17.9623C16.8973 17.9096 16.9613 17.8562 17.0252 17.8016C17.0892 17.7477 17.1531 17.6931 17.217 17.638C17.281 17.5828 17.3449 17.5271 17.4083 17.4708C17.4722 17.4145 17.5355 17.3576 17.5995 17.3007C17.6628 17.2432 17.7262 17.1857 17.7895 17.1271C17.8529 17.0684 17.9157 17.0097 17.979 16.9505C18.0418 16.8912 18.1045 16.8314 18.1673 16.771C18.2447 16.6965 18.3204 16.6214 18.3955 16.5469C18.4706 16.4724 18.5439 16.3973 18.6166 16.3229C18.6893 16.2484 18.7603 16.1733 18.8307 16.0988C18.9011 16.0243 18.9703 15.9492 19.0378 15.8747C19.1058 15.8002 19.1727 15.7251 19.2384 15.6506C19.3041 15.5761 19.3686 15.5011 19.432 15.4266C19.4953 15.3521 19.5575 15.277 19.6185 15.2025C19.6795 15.128 19.7393 15.0529 19.798 14.9784C19.8566 14.9039 19.9141 14.8288 19.9704 14.7543C20.0267 14.6798 20.0819 14.6048 20.1359 14.5303C20.1898 14.4558 20.2426 14.3813 20.2942 14.3062C20.3458 14.2317 20.3963 14.1572 20.4456 14.0821C20.4948 14.0076 20.5429 13.9331 20.5899 13.8586C20.6368 13.7841 20.6825 13.7096 20.7271 13.6351C20.7717 13.5607 20.8151 13.4862 20.8573 13.4117C20.8996 13.3372 20.9406 13.2627 20.9805 13.1882C21.0204 13.1137 21.0591 13.0392 21.0967 12.9653C21.1342 12.8908 21.1706 12.8163 21.2058 12.7424C21.241 12.6685 21.275 12.594 21.3078 12.5195C21.3407 12.445 21.3724 12.3711 21.4029 12.2966C21.4334 12.2227 21.4627 12.1482 21.4908 12.0743C21.519 12.0004 21.546 11.9259 21.5718 11.8519C21.5976 11.778 21.6222 11.7041 21.6457 11.6296C21.6692 11.5557 21.6915 11.4818 21.7126 11.4079C21.7337 11.334 21.7536 11.2601 21.7724 11.1862C21.7912 11.1123 21.8088 11.0384 21.8252 10.965C21.8416 10.8917 21.8569 10.8178 21.871 10.7439C21.885 10.67 21.8979 10.5967 21.9097 10.5233C21.9214 10.45 21.932 10.3761 21.9408 10.3028C21.9501 10.2295 21.9584 10.1561 21.9648 10.0828C21.9718 10.0095 21.9777 9.93618 21.9818 9.86286C21.9865 9.78954 21.9894 9.71621 21.9918 9.64348V9.6423C21.9918 9.6423 21.9918 9.64172 21.9918 9.64113V9.63996C21.9918 9.63996 21.9918 9.63937 21.9918 9.63878C21.9918 9.63878 21.9918 9.6382 21.9918 9.63761C21.9918 9.63761 21.9918 9.63703 21.9918 9.63644C21.9918 9.63644 21.9918 9.63585 21.9918 9.63527C21.9918 9.63527 21.9918 9.63468 21.9918 9.63409C21.9918 9.63351 21.9918 9.63351 21.9918 9.63292C21.9918 9.63233 21.9918 9.63233 21.9918 9.63175C21.9918 9.63175 21.9918 9.63116 21.9918 9.63057C21.9918 9.63057 21.9918 9.62999 21.9918 9.6294C21.9918 9.6294 21.9918 9.62881 21.9918 9.62823C21.9918 9.62823 21.9918 9.62764 21.9918 9.62705C21.9918 9.62705 21.9918 9.62647 21.9918 9.62588C21.9918 9.62588 21.9918 9.62529 21.9918 9.62471C21.9918 9.62471 21.9918 9.62412 21.9918 9.62353C21.9918 9.62353 21.9918 9.62295 21.9918 9.62236C21.9918 9.62236 21.9918 9.62177 21.9918 9.62119C21.9918 9.62119 21.9918 9.6206 21.9918 9.62001C21.9918 9.62001 21.9918 9.61943 21.9918 9.61884V9.61767C21.9918 9.61767 21.9918 9.61708 21.9918 9.61649C21.9918 9.61649 21.9918 9.61591 21.9918 9.61532C21.9918 9.61532 21.9918 9.61474 21.9918 9.61415C21.9918 9.61415 21.9918 9.61356 21.9918 9.61298C21.9918 9.61298 21.9918 9.61239 21.9918 9.6118C21.9918 9.6118 21.9918 9.61122 21.9918 9.61063C21.9918 9.61063 21.9918 9.61004 21.9918 9.60946C21.9918 9.60946 21.9918 9.60887 21.9918 9.60828C21.9918 9.6077 21.9918 9.6077 21.9918 9.60711C21.9918 9.60711 21.9918 9.60652 21.9918 9.60594C21.9918 9.60594 21.9918 9.60535 21.9918 9.60476V9.44815L22 9.45167Z"/>
</mask>
<path d="M22 9.45167V9.45049C22 9.45049 22 9.44991 22 9.44932V9.44815C22 9.44815 22 9.44756 22 9.44697C22 9.44697 22 9.44639 22 9.4458C22 9.4458 22 9.44521 22 9.44463C22 9.44463 22 9.44404 22 9.44345C22 9.44287 22 9.44287 22 9.44228C22 9.44228 22 9.44169 22 9.44111C22 9.44111 22 9.44052 22 9.43993C22 9.43935 22 9.43935 22 9.43876C22 9.43876 22 9.43817 22 9.43759C22 9.43759 22 9.437 22 9.43642C22 9.43642 22 9.43583 22 9.43524C22 9.43524 22 9.43466 22 9.43407V9.4329C22 9.4329 22 9.43231 22 9.43172C22 9.43172 22 9.43114 22 9.43055C22 9.43055 22 9.42996 22 9.42938C22 9.42938 22 9.42879 22 9.4282C22 9.4282 22 9.42762 22 9.42703C22 9.42703 22 9.42644 22 9.42586C22 9.42586 22 9.42527 22 9.42468C22 9.42468 22 9.4241 22 9.42351C22 9.42351 22 9.42292 22 9.42234C22 9.42234 22 9.42175 22 9.42116C22 9.42116 22 9.42058 22 9.41999C22 9.41999 22 9.4194 22 9.41882C22 9.41882 22 9.41823 22 9.41764C22 9.41764 22 9.41706 22 9.41647C22 9.41588 22 9.41588 22 9.4153C22 9.4153 22 9.41471 22 9.41412C21.9965 9.32027 21.9912 9.22701 21.983 9.13433C21.9748 9.04165 21.9648 8.94955 21.9525 8.85805C21.9402 8.76654 21.9255 8.67621 21.9091 8.58646C21.8921 8.49672 21.8733 8.40756 21.8528 8.31898C21.8317 8.23041 21.8088 8.14301 21.7836 8.05619C21.7583 7.96938 21.7313 7.88374 21.702 7.79869C21.6727 7.71363 21.6416 7.62975 21.6088 7.54646C21.5759 7.46316 21.5407 7.38163 21.5038 7.30009C21.4668 7.21915 21.4281 7.13878 21.3876 7.06018C21.3471 6.98099 21.3049 6.90357 21.2609 6.82672C21.2169 6.74988 21.1712 6.67421 21.1237 6.59972C21.0761 6.52522 21.0269 6.4519 20.9758 6.38034C20.9248 6.30819 20.8726 6.2378 20.818 6.168C20.7635 6.09819 20.7084 6.03015 20.6509 5.96387C20.5934 5.89758 20.5347 5.83189 20.4743 5.76795C20.4139 5.70401 20.3523 5.64125 20.2889 5.58024C20.2256 5.51924 20.1611 5.45941 20.0954 5.40134C20.0291 5.34327 19.9622 5.28637 19.8936 5.23182C19.825 5.17726 19.7552 5.1233 19.6836 5.07168C19.612 5.02006 19.5399 4.96962 19.466 4.92093C19.3921 4.87224 19.3176 4.82532 19.2413 4.78074C19.1651 4.73616 19.0882 4.69216 19.0096 4.65052C18.931 4.60887 18.8518 4.56898 18.7715 4.53144C18.6911 4.4939 18.6096 4.45753 18.5269 4.42351C18.4442 4.38949 18.3609 4.35723 18.2764 4.32672C18.1919 4.29622 18.1069 4.26807 18.0206 4.24226C17.9344 4.21645 17.8476 4.19181 17.7596 4.16952C17.6716 4.14723 17.5831 4.12729 17.4933 4.1091C17.4036 4.09092 17.3138 4.07508 17.2229 4.06159C17.132 4.0481 17.0405 4.03637 16.9478 4.02757C16.8557 4.01818 16.7624 4.01115 16.6692 4.00704C16.5759 4.00235 16.4815 4 16.387 4C16.3407 4 16.2943 4 16.248 4.00176C16.2017 4.00352 16.1553 4.00469 16.1096 4.00704C16.0632 4.00939 16.0175 4.01232 15.9717 4.01525C15.926 4.01877 15.8802 4.02229 15.8345 4.02698C15.7887 4.03168 15.7435 4.03637 15.6978 4.04223C15.652 4.0481 15.6069 4.05397 15.5617 4.06042C15.5165 4.06687 15.4714 4.0745 15.4268 4.08212C15.3822 4.08975 15.337 4.09796 15.2925 4.10676C15.2479 4.11556 15.2033 4.12494 15.1593 4.13491C15.1147 4.14489 15.0707 4.15486 15.0267 4.166C14.9828 4.17715 14.9388 4.18829 14.8954 4.20061C14.8519 4.21234 14.808 4.22525 14.7651 4.23815C14.7217 4.25106 14.6789 4.26455 14.6355 4.27863C14.5927 4.2927 14.5499 4.30737 14.507 4.32262C14.4642 4.33787 14.422 4.35312 14.3798 4.36954C14.3375 4.38538 14.2959 4.40239 14.2536 4.4194C14.212 4.43641 14.1703 4.45401 14.1293 4.4722C14.0882 4.49038 14.0466 4.50915 14.0061 4.52851C13.965 4.54786 13.9246 4.56722 13.8841 4.58775C13.8436 4.6077 13.8037 4.62881 13.7633 4.64993C13.7228 4.67105 13.6835 4.69275 13.6442 4.71504C13.6049 4.73733 13.5656 4.75962 13.5263 4.78308C13.4876 4.80596 13.4489 4.83001 13.4101 4.85406C13.3714 4.87811 13.3333 4.90275 13.2958 4.92797C13.2582 4.95319 13.2201 4.97841 13.1831 5.00481C13.1456 5.03062 13.1086 5.0576 13.0717 5.08458C13.0347 5.11157 12.9984 5.13914 12.962 5.16729C12.9256 5.19545 12.8898 5.2236 12.8541 5.25293C12.8183 5.28168 12.7831 5.311 12.7479 5.34092C12.7127 5.37084 12.6781 5.40134 12.6441 5.43184C12.61 5.46234 12.5754 5.49402 12.542 5.52569C12.5086 5.55737 12.4751 5.58963 12.4417 5.62248C12.4341 5.6301 12.4264 5.63714 12.4182 5.64418C12.4106 5.65122 12.4024 5.65826 12.3942 5.66471C12.386 5.67116 12.3778 5.67762 12.3695 5.68348C12.3613 5.68935 12.3525 5.69521 12.3437 5.70108C12.3349 5.70695 12.3261 5.71222 12.3173 5.7175C12.3085 5.72278 12.2997 5.72748 12.2904 5.73217C12.2816 5.73686 12.2722 5.74155 12.2628 5.74566C12.2534 5.74977 12.244 5.75387 12.2346 5.75739C12.2252 5.76091 12.2159 5.76443 12.2065 5.76795C12.1971 5.77147 12.1871 5.7744 12.1777 5.77733C12.1683 5.78027 12.1584 5.78261 12.1484 5.78496C12.1384 5.78731 12.129 5.78965 12.1191 5.79141C12.1091 5.79317 12.0991 5.79493 12.0897 5.79611C12.0798 5.79728 12.0698 5.79845 12.0598 5.79962C12.0499 5.8008 12.0399 5.80138 12.0299 5.80197C12.0199 5.80197 12.01 5.80256 12 5.80256C11.99 5.80256 11.9801 5.80256 11.9701 5.80197C11.9601 5.80197 11.9501 5.8008 11.9402 5.79962C11.9302 5.79845 11.9202 5.79728 11.9103 5.79611C11.9003 5.79493 11.8903 5.79317 11.8809 5.79141C11.871 5.78965 11.8616 5.78731 11.8516 5.78496C11.8416 5.78261 11.8322 5.78027 11.8223 5.77733C11.8123 5.7744 11.8029 5.77147 11.7935 5.76795C11.7841 5.76443 11.7748 5.76091 11.7654 5.75739C11.756 5.75387 11.7466 5.74977 11.7372 5.74566C11.7278 5.74155 11.719 5.73686 11.7096 5.73217C11.7008 5.72748 11.6915 5.72278 11.6827 5.7175C11.6739 5.71222 11.6651 5.70695 11.6563 5.70108C11.6475 5.69521 11.6393 5.68935 11.6305 5.68348C11.6217 5.67762 11.614 5.67116 11.6058 5.66471C11.5976 5.65826 11.5894 5.65122 11.5818 5.64418C11.5741 5.63714 11.5659 5.6301 11.5583 5.62248C11.5255 5.58963 11.492 5.55737 11.458 5.52569C11.4246 5.49402 11.39 5.46293 11.3559 5.43184C11.3213 5.40075 11.2867 5.37084 11.2521 5.34092C11.2175 5.311 11.1817 5.28168 11.1459 5.25293C11.1102 5.22419 11.0744 5.19545 11.038 5.16729C11.0016 5.13914 10.9653 5.11157 10.9283 5.08458C10.8914 5.0576 10.8544 5.03121 10.8169 5.00481C10.7793 4.979 10.7418 4.95319 10.7042 4.92797C10.6667 4.90275 10.628 4.87811 10.5899 4.85406C10.5511 4.83001 10.5124 4.80655 10.4737 4.78308C10.435 4.76021 10.3957 4.73733 10.3558 4.71504C10.3165 4.69275 10.2766 4.67105 10.2367 4.64993C10.1969 4.62881 10.1564 4.60828 10.1159 4.58775C10.0754 4.56781 10.035 4.54786 9.9939 4.52851C9.95284 4.50915 9.91178 4.49038 9.87072 4.4722C9.82966 4.45401 9.78801 4.43641 9.74636 4.4194C9.70472 4.40239 9.66248 4.38538 9.62025 4.36954C9.57802 4.35371 9.53578 4.33787 9.49296 4.32262C9.45014 4.30737 9.40791 4.2927 9.3645 4.27863C9.32109 4.26455 9.27827 4.25106 9.23487 4.23815C9.19146 4.22525 9.14805 4.21293 9.10465 4.20061C9.06124 4.18888 9.01725 4.17715 8.97325 4.166C8.92926 4.15486 8.88527 4.14489 8.84069 4.13491C8.79611 4.12494 8.75211 4.11556 8.70753 4.10676C8.66295 4.09796 8.61837 4.08975 8.5732 4.08212C8.52862 4.0745 8.48346 4.06746 8.43829 4.06042C8.39313 4.05397 8.34796 4.04751 8.30221 4.04223C8.25645 4.03695 8.21129 4.03168 8.16553 4.02698C8.11978 4.02229 8.07403 4.01877 8.02827 4.01525C7.98252 4.01173 7.93618 4.00939 7.89043 4.00704C7.84409 4.00469 7.79833 4.00293 7.75199 4.00176C7.70565 4.00059 7.65932 4 7.61298 4C7.51854 4 7.4241 4.00235 7.33083 4.00704C7.23756 4.01173 7.1443 4.01877 7.05221 4.02757C6.96011 4.03695 6.86802 4.0481 6.7771 4.06159C6.68618 4.07508 6.59585 4.09092 6.50669 4.1091C6.41694 4.12729 6.32837 4.14723 6.24038 4.16952C6.15239 4.19181 6.06558 4.21586 5.97935 4.24226C5.89313 4.26865 5.80807 4.29681 5.7236 4.32672C5.63914 4.35723 5.55584 4.3889 5.47313 4.42351C5.39043 4.45753 5.30889 4.4939 5.22853 4.53144C5.14817 4.56898 5.0684 4.60887 4.99038 4.65052C4.91178 4.69216 4.83494 4.73557 4.75868 4.78074C4.68243 4.8259 4.60793 4.87283 4.53402 4.92093C4.46011 4.96962 4.38796 5.01947 4.3164 5.07168C4.24542 5.1233 4.17504 5.17726 4.10641 5.23182C4.03778 5.28637 3.97032 5.34327 3.90462 5.40134C3.83834 5.45941 3.77382 5.51924 3.71105 5.58024C3.64829 5.64125 3.58611 5.70401 3.52569 5.76795C3.46527 5.83189 3.40662 5.89758 3.34913 5.96387C3.29165 6.03015 3.23592 6.09878 3.18196 6.168C3.12799 6.23721 3.0752 6.30819 3.02417 6.38034C2.97313 6.45249 2.92386 6.52581 2.87635 6.59972C2.82884 6.67421 2.78308 6.74988 2.73909 6.82672C2.6951 6.90357 2.65286 6.98158 2.61239 7.06018C2.57191 7.13937 2.5332 7.21915 2.49625 7.30009C2.45929 7.38104 2.42468 7.46316 2.39125 7.54646C2.3584 7.62975 2.32731 7.71363 2.29798 7.79869C2.26865 7.88374 2.24167 7.96938 2.21645 8.05619C2.19122 8.14301 2.16835 8.23041 2.14723 8.31898C2.12611 8.40756 2.10734 8.49672 2.09092 8.58646C2.07391 8.67621 2.05983 8.76713 2.04751 8.85805C2.03519 8.94955 2.02522 9.04165 2.01701 9.13433C2.0088 9.22701 2.00352 9.32027 2 9.41412V9.4153V9.41647V9.41764V9.41882V9.41999V9.42116V9.42234V9.42351V9.42468V9.42586V9.42703V9.4282V9.42938V9.43055V9.43172V9.4329V9.43407V9.43524V9.43642V9.43759V9.43876V9.43993V9.44111V9.44228V9.44345V9.44463V9.4458C2 9.4458 2 9.44697 2 9.44756C2 9.44756 2 9.44873 2 9.44932C2 9.44932 2 9.45049 2 9.45108C2 9.45108 2 9.45225 2 9.45284C2 9.45284 2 9.45401 2 9.4546V9.45988C2 9.45988 2 9.46164 2 9.46222V9.46457C2 9.46457 2 9.46633 2 9.46692C2 9.4675 2 9.46868 2 9.46926C2 9.46985 2 9.47102 2 9.47161C2 9.4722 2 9.47337 2 9.47396C2 9.47454 2 9.47572 2 9.4763C2 9.47689 2 9.47806 2 9.47865C2 9.47924 2 9.48041 2 9.48099C2 9.48158 2 9.48275 2 9.48334C2 9.48393 2 9.4851 2 9.48569C2 9.48627 2 9.48745 2 9.48803C2 9.48862 2 9.48979 2 9.49038C2 9.49097 2 9.49214 2 9.49273C2 9.49331 2 9.49449 2 9.49507C2 9.49566 2 9.49683 2 9.49742C2 9.49801 2 9.49918 2 9.49977C2 9.50035 2 9.50153 2 9.50211C2 9.5027 2 9.50387 2 9.50446C2 9.50504 2 9.50622 2 9.5068C2 9.50739 2 9.50856 2 9.50915C2 9.50974 2 9.51091 2 9.5115C2 9.51208 2 9.51326 2 9.51384C2 9.51443 2 9.5156 2 9.51619C2 9.51678 2 9.51795 2 9.51854C2 9.51912 2 9.5203 2 9.52088C2 9.52147 2 9.52264 2 9.52323C2 9.52382 2 9.52499 2 9.52558C2 9.52616 2 9.52733 2 9.52792C2 9.52851 2 9.52968 2 9.53027C2 9.53085 2 9.53203 2 9.53261C2 9.5332 2 9.53437 2 9.53496C2 9.53555 2 9.53672 2 9.53731C2 9.53789 2 9.53907 2 9.53965C2 9.54024 2 9.54141 2 9.542C2 9.54259 2 9.54376 2 9.54435C2 9.54493 2 9.54611 2 9.54669C2 9.54728 2 9.54845 2 9.54904C2 9.54962 2 9.5508 2 9.55138C2 9.55197 2 9.55314 2 9.55373C2 9.55432 2 9.55549 2 9.55608C2 9.55666 2 9.55784 2 9.55842C2 9.55901 2 9.56018 2 9.56077C2 9.56136 2 9.56253 2 9.56312C2 9.5637 2 9.56488 2 9.56546C2 9.56605 2 9.56722 2 9.56781V9.57016C2 9.57016 2 9.57191 2 9.5725C2 9.57309 2 9.57426 2 9.57485C2 9.57543 2 9.57661 2 9.57719C2 9.57778 2 9.57895 2 9.57954C2 9.58013 2 9.5813 2 9.58189C2 9.58247 2 9.58365 2 9.58423C2 9.58482 2 9.58599 2 9.58658C2 9.58717 2 9.58834 2 9.58893C2 9.58951 2 9.59069 2 9.59127C2 9.59186 2 9.59303 2 9.59362C2 9.5942 2 9.59538 2 9.59596V9.59831C2 9.59831 2 9.60007 2 9.60066V9.60652V9.6077V9.60887V9.61004C2 9.61004 2 9.61063 2 9.61122C2 9.61122 2 9.6118 2 9.61239C2 9.61239 2 9.61298 2 9.61356C2 9.61356 2 9.61415 2 9.61474C2 9.61474 2 9.61532 2 9.61591C2 9.61591 2 9.6165 2 9.61708C2 9.61708 2 9.61767 2 9.61825C2 9.61825 2 9.61884 2 9.61943V9.6206C2 9.6206 2 9.62119 2 9.62177C2 9.62177 2 9.62236 2 9.62295C2 9.62353 2 9.62353 2 9.62412C2 9.62412 2 9.62471 2 9.62529C2 9.62529 2 9.62588 2 9.62647C2 9.62647 2 9.62705 2 9.62764C2 9.62764 2 9.62823 2 9.62881C2 9.62881 2 9.6294 2 9.62999V9.63116C2 9.63116 2 9.63175 2 9.63233C2 9.63233 2 9.63292 2 9.63351C2 9.63351 2 9.63409 2 9.63468C2 9.63468 2 9.63527 2 9.63585C2 9.63585 2 9.63644 2 9.63703C2 9.63761 2 9.63761 2 9.6382C2 9.6382 2 9.63878 2 9.63937C2 9.63937 2 9.63996 2 9.64054C2 9.64054 2 9.64113 2 9.64172C2 9.6423 2 9.6423 2 9.64289C2.00235 9.71621 2.00528 9.78895 2.00997 9.86227C2.01466 9.93559 2.01994 10.0089 2.02698 10.0822C2.03402 10.1556 2.04223 10.2289 2.05103 10.3022C2.06042 10.3755 2.07098 10.4494 2.08212 10.5228C2.09385 10.5961 2.10676 10.67 2.12084 10.7433C2.13491 10.8166 2.15016 10.8905 2.16659 10.9645C2.18301 11.0384 2.20061 11.1123 2.21938 11.1856C2.23815 11.2595 2.25809 11.3334 2.27921 11.4073C2.30033 11.4812 2.32262 11.5551 2.34608 11.629C2.36954 11.703 2.39418 11.7769 2.41999 11.8514C2.4458 11.9253 2.47278 11.9998 2.50094 12.0737C2.52909 12.1476 2.55842 12.2221 2.58893 12.296C2.61943 12.3699 2.6511 12.4444 2.68395 12.5189C2.7168 12.5934 2.75082 12.6673 2.78602 12.7418C2.82121 12.8163 2.85758 12.8902 2.89512 12.9647C2.93266 13.0392 2.97137 13.1137 3.01126 13.1876C3.05115 13.2621 3.09221 13.3366 3.13444 13.4111C3.17668 13.4856 3.22008 13.5601 3.26466 13.6346C3.30924 13.7091 3.355 13.7836 3.40192 13.858C3.44885 13.9325 3.49695 14.007 3.54622 14.0815C3.59549 14.156 3.64594 14.2305 3.69756 14.3056C3.74918 14.3801 3.80197 14.4546 3.85594 14.5297C3.9099 14.6048 3.96504 14.6793 4.02135 14.7538C4.07766 14.8283 4.13515 14.9033 4.19381 14.9778C4.25246 15.0523 4.31229 15.1274 4.3733 15.2019C4.4343 15.2764 4.49648 15.3515 4.55983 15.426C4.62318 15.5005 4.68771 15.5756 4.7534 15.65C4.8191 15.7245 4.88597 15.7996 4.95401 15.8741C5.02206 15.9486 5.09127 16.0237 5.16107 16.0982C5.23146 16.1727 5.30303 16.2478 5.37518 16.3223C5.44791 16.3968 5.52123 16.4718 5.59632 16.5463C5.6714 16.6208 5.74707 16.6959 5.8245 16.7704C5.88667 16.8308 5.94944 16.8907 6.01279 16.9499C6.07555 17.0092 6.1389 17.0684 6.20225 17.1265C6.2656 17.1845 6.32895 17.2426 6.3923 17.3001C6.45565 17.3576 6.51959 17.4139 6.58353 17.4702C6.64747 17.5265 6.71082 17.5822 6.77475 17.6374C6.83869 17.6925 6.90263 17.7471 6.96656 17.801C7.0305 17.855 7.09444 17.9084 7.15838 17.9618C7.22231 18.0145 7.28625 18.0673 7.3496 18.119C7.41295 18.1706 7.47689 18.2222 7.54024 18.2726C7.60359 18.3231 7.66694 18.3735 7.73029 18.4228C7.79364 18.4721 7.85641 18.5214 7.91917 18.5695C7.98193 18.6176 8.0447 18.6657 8.10687 18.7126C8.16905 18.7595 8.23123 18.8064 8.29341 18.8522C8.355 18.8979 8.41659 18.9437 8.47818 18.9883C8.53918 19.0329 8.60019 19.0774 8.66061 19.1208C8.72102 19.1642 8.78144 19.2077 8.84127 19.2499C8.9011 19.2921 8.96035 19.3338 9.019 19.3754C9.07766 19.4165 9.13632 19.4569 9.19439 19.4968C9.25246 19.5367 9.30995 19.576 9.36685 19.6147C9.42374 19.6535 9.48006 19.6916 9.53578 19.7285C9.59151 19.7661 9.64664 19.8024 9.70178 19.8388C9.75634 19.8746 9.8103 19.9104 9.86368 19.945C9.91706 19.9796 9.96985 20.0136 10.0221 20.047C10.0743 20.0805 10.1253 20.1133 10.1757 20.145C10.2262 20.1773 10.276 20.2084 10.3253 20.2394C10.3746 20.2699 10.4227 20.3004 10.4702 20.3298C10.5177 20.3591 10.5646 20.3878 10.6104 20.416C10.6561 20.4442 10.7013 20.4711 10.7453 20.4981C10.7893 20.5251 10.8327 20.5503 10.8749 20.5756C10.9172 20.6008 10.9582 20.6254 10.9987 20.6489C11.0392 20.6729 11.0785 20.6958 11.1166 20.7181C11.1547 20.7404 11.1923 20.7621 11.2286 20.7832C11.2363 20.7873 11.2433 20.7914 11.2509 20.7961C11.2586 20.8002 11.2656 20.8043 11.2732 20.8084C11.2809 20.8125 11.2885 20.8166 11.2961 20.8202C11.3037 20.8243 11.3114 20.8278 11.319 20.8313C11.3266 20.8348 11.3342 20.8389 11.3419 20.8424C11.3495 20.846 11.3571 20.8495 11.3647 20.853C11.3724 20.8565 11.38 20.86 11.3882 20.863C11.3958 20.8665 11.4034 20.8694 11.4117 20.8729C11.4193 20.8759 11.4275 20.8794 11.4351 20.8823C11.4428 20.8853 11.451 20.8882 11.4586 20.8911C11.4662 20.8941 11.4744 20.897 11.4821 20.8999C11.4903 20.9029 11.4979 20.9052 11.5061 20.9081C11.5143 20.9111 11.5219 20.9134 11.5302 20.9158C11.5384 20.9181 11.546 20.921 11.5542 20.9234C11.5624 20.9257 11.57 20.9281 11.5783 20.9304C11.5865 20.9328 11.5941 20.9351 11.6023 20.9369C11.6105 20.9392 11.6187 20.941 11.6263 20.9433C11.6346 20.9451 11.6428 20.9474 11.651 20.9492C11.6592 20.951 11.6674 20.9527 11.6756 20.9545C11.6838 20.9562 11.692 20.958 11.7003 20.9598C11.7085 20.9615 11.7167 20.9627 11.7249 20.9645C11.7331 20.9662 11.7413 20.9674 11.7495 20.9686C11.7577 20.9697 11.766 20.9709 11.7742 20.9721C11.7824 20.9733 11.7906 20.9744 11.7988 20.9756C11.807 20.9768 11.8152 20.9779 11.8234 20.9785C11.8317 20.9791 11.8399 20.9803 11.8481 20.9809C11.8563 20.9815 11.8645 20.9826 11.8727 20.9832C11.8809 20.9838 11.8891 20.9844 11.8973 20.985C11.9056 20.985 11.9138 20.9862 11.922 20.9862C11.9302 20.9862 11.9384 20.9867 11.9466 20.9873C11.9548 20.9873 11.963 20.9873 11.9713 20.9879C11.9795 20.9879 11.9877 20.9879 11.9959 20.9879C12.0041 20.9879 12.0123 20.9879 12.0205 20.9879C12.0287 20.9879 12.037 20.9879 12.0452 20.9873C12.0534 20.9873 12.0616 20.9867 12.0698 20.9862C12.078 20.9862 12.0862 20.9856 12.0944 20.985C12.1027 20.985 12.1109 20.9838 12.1191 20.9832C12.1273 20.9826 12.1355 20.9821 12.1437 20.9809C12.1519 20.9797 12.1601 20.9791 12.1683 20.9785C12.1766 20.9779 12.1848 20.9768 12.193 20.9756C12.2012 20.9744 12.2094 20.9733 12.2176 20.9721C12.2258 20.9709 12.234 20.9697 12.2423 20.9686C12.2505 20.9674 12.2587 20.9656 12.2669 20.9645C12.2751 20.9627 12.2833 20.9615 12.2915 20.9598C12.2997 20.958 12.308 20.9562 12.3162 20.9545C12.3244 20.9527 12.3326 20.951 12.3408 20.9492C12.349 20.9474 12.3572 20.9457 12.3654 20.9433C12.3737 20.9416 12.3819 20.9392 12.3895 20.9369C12.3977 20.9345 12.4059 20.9328 12.4135 20.9304C12.4212 20.9281 12.4294 20.9257 12.4376 20.9234C12.4458 20.921 12.4534 20.9187 12.4616 20.9158C12.4699 20.9128 12.4775 20.9105 12.4857 20.9081C12.4939 20.9052 12.5015 20.9029 12.5097 20.8999C12.518 20.897 12.5256 20.8941 12.5332 20.8911C12.5408 20.8882 12.549 20.8853 12.5567 20.8823C12.5643 20.8794 12.5725 20.8759 12.5801 20.8729C12.5878 20.87 12.596 20.8665 12.6036 20.863C12.6112 20.8595 12.6188 20.8565 12.6271 20.853C12.6347 20.8495 12.6423 20.846 12.6499 20.8424C12.6576 20.8389 12.6652 20.8354 12.6728 20.8313C12.6804 20.8278 12.6881 20.8237 12.6957 20.8202C12.7033 20.8166 12.7109 20.8125 12.7186 20.8084C12.7262 20.8043 12.7338 20.8002 12.7408 20.7961C12.7485 20.792 12.7555 20.7879 12.7631 20.7838C12.7995 20.7627 12.8365 20.7416 12.8752 20.7187C12.9133 20.6964 12.9526 20.6735 12.9931 20.6495C13.0336 20.6254 13.0746 20.6014 13.1168 20.5761C13.1591 20.5509 13.2025 20.5251 13.2465 20.4987C13.2905 20.4723 13.3356 20.4447 13.3814 20.4166C13.4271 20.3884 13.4741 20.3597 13.5216 20.3304C13.5691 20.301 13.6172 20.2711 13.6665 20.24C13.7157 20.2095 13.7656 20.1779 13.816 20.1456C13.8665 20.1133 13.9181 20.0811 13.9697 20.0476C14.0214 20.0142 14.0747 19.9802 14.1281 19.9456C14.1815 19.911 14.2355 19.8752 14.29 19.8394C14.3446 19.8036 14.3997 19.7667 14.456 19.7291C14.5117 19.6916 14.568 19.654 14.6249 19.6153C14.6818 19.5766 14.7393 19.5373 14.7974 19.4974C14.8555 19.4575 14.9135 19.4171 14.9728 19.376C15.0314 19.3349 15.0913 19.2933 15.1505 19.2505C15.2098 19.2077 15.2702 19.1648 15.3312 19.1214C15.3916 19.078 15.4526 19.0334 15.5136 18.9889C15.5746 18.9443 15.6362 18.8985 15.6984 18.8528C15.76 18.807 15.8221 18.7601 15.8849 18.7132C15.9471 18.6662 16.0099 18.6181 16.0726 18.57C16.1354 18.5219 16.1987 18.4727 16.2615 18.4234C16.3248 18.3741 16.3882 18.3237 16.4515 18.2732C16.5149 18.2228 16.5788 18.1712 16.6422 18.1195C16.7055 18.0679 16.7695 18.0151 16.8334 17.9623C16.8973 17.9096 16.9613 17.8562 17.0252 17.8016C17.0892 17.7477 17.1531 17.6931 17.217 17.638C17.281 17.5828 17.3449 17.5271 17.4083 17.4708C17.4722 17.4145 17.5355 17.3576 17.5995 17.3007C17.6628 17.2432 17.7262 17.1857 17.7895 17.1271C17.8529 17.0684 17.9157 17.0097 17.979 16.9505C18.0418 16.8912 18.1045 16.8314 18.1673 16.771C18.2447 16.6965 18.3204 16.6214 18.3955 16.5469C18.4706 16.4724 18.5439 16.3973 18.6166 16.3229C18.6893 16.2484 18.7603 16.1733 18.8307 16.0988C18.9011 16.0243 18.9703 15.9492 19.0378 15.8747C19.1058 15.8002 19.1727 15.7251 19.2384 15.6506C19.3041 15.5761 19.3686 15.5011 19.432 15.4266C19.4953 15.3521 19.5575 15.277 19.6185 15.2025C19.6795 15.128 19.7393 15.0529 19.798 14.9784C19.8566 14.9039 19.9141 14.8288 19.9704 14.7543C20.0267 14.6798 20.0819 14.6048 20.1359 14.5303C20.1898 14.4558 20.2426 14.3813 20.2942 14.3062C20.3458 14.2317 20.3963 14.1572 20.4456 14.0821C20.4948 14.0076 20.5429 13.9331 20.5899 13.8586C20.6368 13.7841 20.6825 13.7096 20.7271 13.6351C20.7717 13.5607 20.8151 13.4862 20.8573 13.4117C20.8996 13.3372 20.9406 13.2627 20.9805 13.1882C21.0204 13.1137 21.0591 13.0392 21.0967 12.9653C21.1342 12.8908 21.1706 12.8163 21.2058 12.7424C21.241 12.6685 21.275 12.594 21.3078 12.5195C21.3407 12.445 21.3724 12.3711 21.4029 12.2966C21.4334 12.2227 21.4627 12.1482 21.4908 12.0743C21.519 12.0004 21.546 11.9259 21.5718 11.8519C21.5976 11.778 21.6222 11.7041 21.6457 11.6296C21.6692 11.5557 21.6915 11.4818 21.7126 11.4079C21.7337 11.334 21.7536 11.2601 21.7724 11.1862C21.7912 11.1123 21.8088 11.0384 21.8252 10.965C21.8416 10.8917 21.8569 10.8178 21.871 10.7439C21.885 10.67 21.8979 10.5967 21.9097 10.5233C21.9214 10.45 21.932 10.3761 21.9408 10.3028C21.9501 10.2295 21.9584 10.1561 21.9648 10.0828C21.9718 10.0095 21.9777 9.93618 21.9818 9.86286C21.9865 9.78954 21.9894 9.71621 21.9918 9.64348V9.6423C21.9918 9.6423 21.9918 9.64172 21.9918 9.64113V9.63996C21.9918 9.63996 21.9918 9.63937 21.9918 9.63878C21.9918 9.63878 21.9918 9.6382 21.9918 9.63761C21.9918 9.63761 21.9918 9.63703 21.9918 9.63644C21.9918 9.63644 21.9918 9.63585 21.9918 9.63527C21.9918 9.63527 21.9918 9.63468 21.9918 9.63409C21.9918 9.63351 21.9918 9.63351 21.9918 9.63292C21.9918 9.63233 21.9918 9.63233 21.9918 9.63175C21.9918 9.63175 21.9918 9.63116 21.9918 9.63057C21.9918 9.63057 21.9918 9.62999 21.9918 9.6294C21.9918 9.6294 21.9918 9.62881 21.9918 9.62823C21.9918 9.62823 21.9918 9.62764 21.9918 9.62705C21.9918 9.62705 21.9918 9.62647 21.9918 9.62588C21.9918 9.62588 21.9918 9.62529 21.9918 9.62471C21.9918 9.62471 21.9918 9.62412 21.9918 9.62353C21.9918 9.62353 21.9918 9.62295 21.9918 9.62236C21.9918 9.62236 21.9918 9.62177 21.9918 9.62119C21.9918 9.62119 21.9918 9.6206 21.9918 9.62001C21.9918 9.62001 21.9918 9.61943 21.9918 9.61884V9.61767C21.9918 9.61767 21.9918 9.61708 21.9918 9.61649C21.9918 9.61649 21.9918 9.61591 21.9918 9.61532C21.9918 9.61532 21.9918 9.61474 21.9918 9.61415C21.9918 9.61415 21.9918 9.61356 21.9918 9.61298C21.9918 9.61298 21.9918 9.61239 21.9918 9.6118C21.9918 9.6118 21.9918 9.61122 21.9918 9.61063C21.9918 9.61063 21.9918 9.61004 21.9918 9.60946C21.9918 9.60946 21.9918 9.60887 21.9918 9.60828C21.9918 9.6077 21.9918 9.6077 21.9918 9.60711C21.9918 9.60711 21.9918 9.60652 21.9918 9.60594C21.9918 9.60594 21.9918 9.60535 21.9918 9.60476V9.44815L22 9.45167Z" stroke="#AEBECC" stroke-width="3" stroke-miterlimit="10" mask="url(#path-1-inside-1_3_188)"/>
</svg>
