<svg width="24" height="24" viewBox="0 0 24 24" fill="none" xmlns="http://www.w3.org/2000/svg">
<path fill-rule="evenodd" clip-rule="evenodd" d="M8.1118 2.97505C7.05971 2.00832 5.44256 2.00832 4.39047 2.97505C4.34738 3.01464 4.30139 3.06065 4.24166 3.12039L3.34416 4.01788C2.44105 4.921 2.06193 6.22292 2.33899 7.4697C3.91096 14.5436 9.4355 20.0681 16.5094 21.6401C17.7561 21.9171 19.0581 21.538 19.9612 20.6349L20.8586 19.7375C20.9184 19.6777 20.9644 19.6317 21.004 19.5886C21.9707 18.5365 21.9707 16.9193 21.004 15.8673C20.9644 15.8241 20.9184 15.7781 20.8586 15.7184L19.3893 14.2491C18.3692 13.229 16.8287 12.9372 15.5062 13.5137C14.7491 13.8437 13.8672 13.6767 13.2832 13.0927L10.8864 10.6959C10.3024 10.1119 10.1353 9.22994 10.4654 8.47283C11.0418 7.15037 10.7501 5.60984 9.72996 4.58974L8.26063 3.12041C8.2009 3.06066 8.15489 3.01464 8.1118 2.97505ZM5.40538 4.07957C5.8836 3.64014 6.61867 3.64014 7.09689 4.07957C7.1134 4.09474 7.13504 4.11613 7.2111 4.1922L8.6693 5.6504C9.2533 6.2344 9.42033 7.11635 9.09031 7.87345C8.51385 9.19592 8.8056 10.7364 9.8257 11.7565L12.2225 14.1534C13.2426 15.1735 14.7831 15.4652 16.1056 14.8887C16.8627 14.5587 17.7447 14.7258 18.3287 15.3098L19.7869 16.768C19.8629 16.844 19.8843 16.8657 19.8995 16.8822C20.3389 17.3604 20.3389 18.0955 19.8995 18.5737C19.8843 18.5902 19.8629 18.6118 19.7869 18.6879L18.9005 19.5742C18.36 20.1147 17.5809 20.3416 16.8348 20.1758C10.3294 18.7302 5.2489 13.6496 3.80327 7.1443C3.63746 6.39816 3.86435 5.61902 4.40482 5.07855L5.29117 4.1922C5.36723 4.11614 5.38887 4.09474 5.40538 4.07957Z" fill="#AEBECC"/>
</svg>
