<svg width="33" height="33" viewBox="0 0 33 33" fill="none" xmlns="http://www.w3.org/2000/svg">
<path d="M23.4231 23.0566H22.5708C21.6735 23.0566 20.8212 23.3756 20.1931 23.952L18.2753 25.6914C17.4005 26.4838 15.9761 26.4838 15.1013 25.6914L13.1835 23.952C12.5554 23.3756 11.6918 23.0566 10.8058 23.0566H9.96463C8.10287 23.0566 6.6 21.6877 6.6 19.9998V8.77106C6.6 7.08315 8.10287 5.71429 9.96463 5.71429H23.4231C25.2849 5.71429 26.7878 7.08315 26.7878 8.77106V19.9998C26.7878 21.6774 25.2849 23.0566 23.4231 23.0566Z" stroke="#AEBECC" stroke-miterlimit="10" stroke-linecap="round" stroke-linejoin="round"/>
<path d="M18.4023 12.6105L18.4023 12.6105L18.4006 12.6069L17.6609 11.0871C17.6608 11.087 17.6608 11.0869 17.6607 11.0868C17.4281 10.6065 17.0326 10.1861 16.4828 10.1861C15.9338 10.1861 15.5372 10.6055 15.3025 11.0853L15.302 11.0862L14.5619 12.6069L14.5619 12.6069L14.5601 12.6105C14.5529 12.6257 14.5213 12.6712 14.4578 12.7196C14.429 12.7414 14.4004 12.7587 14.3753 12.7707C14.363 12.7766 14.3527 12.7807 14.3449 12.7833C14.341 12.7846 14.338 12.7854 14.3359 12.786L14.3334 12.7866C14.3331 12.7866 14.3329 12.7867 14.3328 12.7867C14.3327 12.7867 14.3326 12.7868 14.3326 12.7868L12.9929 13.0154L12.9926 13.0155C12.4706 13.1048 11.9858 13.3756 11.8268 13.8869C11.6695 14.3932 11.9077 14.8945 12.2772 15.2741L13.3201 16.3455C13.3349 16.3606 13.3693 16.4114 13.3928 16.496C13.4159 16.5789 13.4144 16.6438 13.4088 16.6711L13.1107 17.9951C13.1107 17.9951 13.1107 17.9951 13.1107 17.9951C12.9837 18.5588 13.0063 19.2026 13.4784 19.5564C13.9596 19.9172 14.5808 19.7372 15.0698 19.4392C15.0698 19.4391 15.0699 19.4391 15.0699 19.4391L16.3244 18.6762C16.3458 18.6638 16.4028 18.6438 16.4849 18.6438C16.5686 18.6438 16.6231 18.6645 16.6397 18.6746L16.6399 18.6747L17.8973 19.4394L17.8977 19.4396C18.3863 19.7361 19.0082 19.9188 19.4897 19.5582C19.9625 19.2041 19.9824 18.5587 19.8561 17.9955L19.856 17.9951L19.5579 16.6712C19.5522 16.6438 19.5507 16.579 19.5739 16.496C19.5974 16.4114 19.6318 16.3606 19.6466 16.3455L20.6883 15.2753C20.6885 15.275 20.6888 15.2748 20.689 15.2746C21.0608 14.8949 21.2998 14.3932 21.1411 13.886C20.9813 13.3751 20.4956 13.1047 19.974 13.0155L19.9738 13.0154L18.6325 12.7865C18.6325 12.7865 18.6325 12.7865 18.6325 12.7865C18.6188 12.7841 18.5679 12.767 18.5043 12.7188C18.4409 12.6708 18.4095 12.6255 18.4023 12.6105Z" stroke="#AEBECC" stroke-linecap="round" stroke-linejoin="round"/>
</svg>
