<svg width="24" height="24" viewBox="0 0 24 24" fill="none" xmlns="http://www.w3.org/2000/svg">
<g clip-path="url(#clip0_1_197)">
<path d="M15.09 8.00001V9.50001C15.45 9.50001 15.8 9.60001 16.06 9.79001C16.26 9.93001 16.39 10.11 16.43 10.3V10.35L16.46 10.4L18.25 16.9L18.55 18H19.69C20.46 18 20.51 19.78 20.51 20.13V20.5H3.5V20.13C3.5 19.64 3.56 18.02 4.35 18L5.46 17.97L5.76 16.9L7.55 10.4V10.35L7.58 10.3C7.62 10.12 7.75 9.94001 7.95 9.79001C8.21 9.61001 8.56 9.50001 8.93 9.50001H15.1V8.00001M15.1 8.00001H8.93C8.26 8.00001 7.61 8.20001 7.1 8.57001C6.58 8.94001 6.24 9.45001 6.13 10.01L4.34 16.51C2 16.56 2 19.61 2 20.13V22H22V20.13C22 19.61 22 16.51 19.69 16.5L17.9 10C17.79 9.44001 17.44 8.93001 16.93 8.56001C16.42 8.20001 15.77 7.99001 15.1 7.99001V8.00001Z" fill="#AEBECC"/>
<path d="M12.67 2.67C12.67 2.29997 12.37 2 12 2C11.63 2 11.33 2.29997 11.33 2.67V4.69C11.33 5.06003 11.63 5.36 12 5.36C12.37 5.36 12.67 5.06003 12.67 4.69V2.67Z" fill="#AEBECC"/>
<path d="M18.7669 4.05805C18.9081 3.71602 18.7453 3.32429 18.4032 3.1831C18.0612 3.04191 17.6695 3.20474 17.5283 3.54677L16.7576 5.41395C16.6164 5.75599 16.7792 6.14772 17.1212 6.28891C17.4633 6.43009 17.855 6.26727 17.9962 5.92523L18.7669 4.05805Z" fill="#AEBECC"/>
<path d="M21.7966 8.22455C22.0611 7.96574 22.0657 7.54155 21.8069 7.27708C21.5481 7.01261 21.1239 7.00802 20.8594 7.26683L19.4157 8.67964C19.1512 8.93845 19.1466 9.36264 19.4054 9.62711C19.6643 9.89158 20.0884 9.89617 20.3529 9.63736L21.7966 8.22455Z" fill="#AEBECC"/>
<path d="M3.80006 9.60719C4.08608 9.84196 4.50826 9.80042 4.74303 9.5144C4.9778 9.22838 4.93626 8.8062 4.65024 8.57143L3.08887 7.28982C2.80285 7.05505 2.38067 7.0966 2.1459 7.38261C1.91113 7.66863 1.95268 8.09081 2.23869 8.32558L3.80006 9.60719Z" fill="#AEBECC"/>
<path d="M6.00137 5.91431C6.14256 6.25635 6.53429 6.41917 6.87632 6.27798C7.21836 6.13679 7.38118 5.74506 7.23999 5.40303L6.46925 3.53585C6.32807 3.19381 5.93634 3.03099 5.5943 3.17218C5.25226 3.31336 5.08944 3.70509 5.23063 4.04713L6.00137 5.91431Z" fill="#AEBECC"/>
<path d="M19.67 16.5H4.32001V18H19.67V16.5Z" fill="#AEBECC"/>
</g>
<defs>
<clipPath id="clip0_1_197">
<rect width="20" height="20" fill="white" transform="translate(2 2)"/>
</clipPath>
</defs>
</svg>
