<svg width="24" height="24" viewBox="0 0 24 24" fill="none" xmlns="http://www.w3.org/2000/svg">
<path d="M17.1528 3.32436C18.0657 3.3204 18.693 3.31868 19.1707 3.36944C19.326 3.38594 19.4558 3.4072 19.566 3.43289L9.93431 12.8035C9.66888 13.0617 9.66888 13.4804 9.93431 13.7386C10.1997 13.9968 10.6301 13.9968 10.8955 13.7386L20.5272 4.36802C20.5536 4.47524 20.5754 4.60149 20.5924 4.75255C20.6446 5.21739 20.6428 5.82762 20.6387 6.71576L20.6287 8.90414C20.627 9.26933 20.93 9.56669 21.3053 9.56832C21.6807 9.56995 21.9863 9.27523 21.988 8.91004L21.9982 6.68226C22.0021 5.84318 22.0052 5.1574 21.9437 4.60899C21.8797 4.03871 21.7387 3.53382 21.3931 3.09936C21.3183 3.00531 21.2376 2.91601 21.1514 2.83196C21.0631 2.74576 20.9691 2.66509 20.87 2.59045C20.4234 2.25422 19.9045 2.11706 19.3183 2.05479C18.7546 1.9949 18.0497 1.99797 17.1873 2.00173L14.8974 2.01167C14.522 2.0133 14.2191 2.31066 14.2208 2.67585C14.2225 3.04103 14.5281 3.33576 14.9035 3.33413L17.1528 3.32436Z" fill="#AEBECC"/>
<path d="M12.6562 4.81427C12.1073 4.80787 11.5028 4.80787 10.8385 4.80787H10.7946C9.1303 4.80786 7.82571 4.80785 6.79069 4.91695C5.73446 5.02829 4.87865 5.25956 4.14794 5.77605C3.70558 6.08873 3.31656 6.46721 2.99516 6.89758C2.46428 7.60847 2.22656 8.44108 2.11212 9.46868C1.99999 10.4756 1.99999 11.7449 2 13.364V13.4438C1.99999 15.063 1.99999 16.3322 2.11212 17.3392C2.22656 18.3668 2.46428 19.1994 2.99516 19.9103C3.31656 20.3407 3.70558 20.7191 4.14795 21.0318C4.87865 21.5483 5.73446 21.7796 6.79069 21.8909C7.82569 22 9.13026 22 10.7945 22H10.8766C12.5409 22 13.8455 22 14.8805 21.8909C15.9367 21.7796 16.7926 21.5483 17.5233 21.0318C17.9656 20.7191 18.3547 20.3407 18.676 19.9103C19.2069 19.1994 19.4447 18.3668 19.5591 17.3392C19.6712 16.3322 19.6712 15.0631 19.6712 13.4439V13.4009C19.6712 12.7547 19.6712 12.1666 19.6646 11.6327C19.6601 11.2675 19.3522 10.9751 18.9769 10.9795C18.6015 10.9838 18.3009 11.2834 18.3054 11.6486C18.3119 12.1738 18.3119 12.7544 18.3119 13.4039C18.3119 15.0716 18.311 16.2693 18.2077 17.1967C18.1058 18.1118 17.9108 18.6851 17.5763 19.133C17.3388 19.4511 17.0512 19.7308 16.7243 19.9619C16.2639 20.2873 15.6747 20.477 14.7341 20.5761C13.7808 20.6766 12.5498 20.6775 10.8356 20.6775C9.12143 20.6775 7.8904 20.6766 6.9371 20.5761C5.99653 20.477 5.4073 20.2873 4.94693 19.9619C4.61997 19.7308 4.33243 19.4511 4.09488 19.133C3.76041 18.6851 3.56544 18.1118 3.46354 17.1967C3.36026 16.2693 3.35932 15.0716 3.35932 13.4039C3.35932 11.7362 3.36026 10.5386 3.46354 9.61112C3.56544 8.69605 3.76041 8.12279 4.09488 7.67491C4.33243 7.35681 4.61997 7.07707 4.94694 6.84595C5.4073 6.52055 5.99653 6.33087 6.9371 6.23173C7.8904 6.13125 9.12143 6.13034 10.8356 6.13034C11.5032 6.13034 12.1 6.13035 12.6399 6.13665C13.0152 6.14102 13.3231 5.84855 13.3277 5.48338C13.3321 5.11822 13.0315 4.81865 12.6562 4.81427Z" fill="#AEBECC"/>
</svg>
