<svg width="24" height="24" viewBox="0 0 24 24" fill="none" xmlns="http://www.w3.org/2000/svg">
<path fill-rule="evenodd" clip-rule="evenodd" d="M4.95786 9.0302L7.73137 8.56564C8.19217 8.48676 8.74861 8.07479 8.95728 7.64529L10.4875 4.55992C11.3221 2.88576 12.6785 2.88576 13.5044 4.55992L15.0346 7.64529C15.2433 8.07479 15.7997 8.48676 16.2692 8.56564L19.0427 9.0302C20.8164 9.32822 21.2337 10.6255 19.9557 11.9052L17.7995 14.079C17.4343 14.4471 17.2343 15.1571 17.3473 15.6655L17.9646 18.3564C18.4515 20.4864 17.33 21.3103 15.4607 20.1971L12.861 18.6457C12.3916 18.3652 11.6178 18.3652 11.1396 18.6457L8.53995 20.1971C6.67935 21.3103 5.54908 20.4776 6.03597 18.3564L6.65327 15.6655C6.76629 15.1571 6.56632 14.4471 6.20116 14.079L4.04496 11.9052C2.77558 10.6255 3.18421 9.32822 4.95786 9.0302ZM5.37935 15.3854C5.37971 15.382 5.38158 15.3646 5.37966 15.3324C5.37706 15.2887 5.36838 15.2342 5.35183 15.1759C5.33527 15.1176 5.31436 15.0679 5.29464 15.0314C5.28204 15.0082 5.27321 14.9963 5.2709 14.9932L3.11894 12.8237C2.32203 12.0203 1.7416 10.8904 2.11686 9.70572C2.49367 8.51608 3.62366 7.9318 4.74174 7.74393L7.50134 7.2817C7.5061 7.28009 7.51702 7.27612 7.53382 7.26823C7.56857 7.25192 7.61233 7.22637 7.65796 7.19226C7.70359 7.15815 7.74035 7.12351 7.7657 7.09487C7.77862 7.08027 7.78558 7.07063 7.78826 7.06676L7.78875 7.06575L9.32021 3.97797C9.82922 2.957 10.7233 2 11.9992 2C13.277 2 14.1687 2.95914 14.6735 3.98159C14.6737 3.98201 14.6739 3.98243 14.6741 3.98284L16.2031 7.06577C16.2057 7.0695 16.2129 7.07969 16.2257 7.09412C16.2507 7.12237 16.2872 7.15664 16.3326 7.19044C16.378 7.22422 16.4219 7.24968 16.4572 7.26609C16.4769 7.27526 16.4891 7.27937 16.4934 7.28071L19.2582 7.74382C20.375 7.93146 21.5073 8.51477 21.8863 9.70336C22.2647 10.8902 21.6821 12.0215 20.8803 12.8251C20.8797 12.8257 20.8791 12.8263 20.8785 12.8269L18.7297 14.9932C18.7274 14.9963 18.7186 15.0082 18.706 15.0314C18.6862 15.0679 18.6653 15.1176 18.6488 15.1759C18.6322 15.2342 18.6235 15.2887 18.6209 15.3324C18.619 15.3646 18.6209 15.382 18.6213 15.3854L19.2361 18.0658C19.504 19.2377 19.4933 20.7174 18.3686 21.5439C17.2387 22.3744 15.8241 21.9316 14.7933 21.3178L12.1977 19.7687C12.1939 19.7672 12.1808 19.762 12.1568 19.7562C12.1171 19.7467 12.0641 19.7396 12.0036 19.7396C11.9431 19.7396 11.8887 19.7466 11.8466 19.7567C11.8161 19.764 11.8003 19.7708 11.797 19.7722L9.2096 21.3164C9.20933 21.3166 9.20987 21.3162 9.2096 21.3164C8.17685 21.9341 6.76346 22.3706 5.63478 21.5403C4.51235 20.7146 4.49514 19.2393 4.76469 18.0648C4.76468 18.0649 4.7647 18.0647 4.76469 18.0648L5.37935 15.3854Z" fill="#AEBECC"/>
</svg>
