<svg width="24" height="24" viewBox="0 0 24 24" fill="none" xmlns="http://www.w3.org/2000/svg">
<path fill-rule="evenodd" clip-rule="evenodd" d="M12 5.06365C10.2374 5.06365 8.80851 6.58347 8.80851 8.45827C8.80851 10.3331 10.2374 11.8529 12 11.8529C13.7626 11.8529 15.1915 10.3331 15.1915 8.45827C15.1915 6.58347 13.7626 5.06365 12 5.06365ZM10.0851 8.45827C10.0851 7.33339 10.9424 6.4215 12 6.4215C13.0576 6.4215 13.9149 7.33339 13.9149 8.45827C13.9149 9.58315 13.0576 10.495 12 10.495C10.9424 10.495 10.0851 9.58315 10.0851 8.45827Z" fill="#AEBECC"/>
<path fill-rule="evenodd" clip-rule="evenodd" d="M9.44681 13.2108C7.6842 13.2108 6.25532 14.7306 6.25532 16.6054C6.25532 18.4802 7.6842 20 9.44681 20H14.5532C16.3158 20 17.7447 18.4802 17.7447 16.6054C17.7447 14.7306 16.3158 13.2108 14.5532 13.2108H9.44681ZM7.53192 16.6054C7.53192 15.4805 8.38924 14.5686 9.44681 14.5686H14.5532C15.6108 14.5686 16.4681 15.4805 16.4681 16.6054C16.4681 17.7303 15.6108 18.6421 14.5532 18.6421H9.44681C8.38924 18.6421 7.53192 17.7303 7.53192 16.6054Z" fill="#AEBECC"/>
<path d="M8.3848 9.78322C8.25057 9.55385 7.99869 9.4314 7.74468 9.4314C6.68711 9.4314 5.82979 8.51951 5.82979 7.39463C5.82979 6.26975 6.68711 5.35785 7.74468 5.35785C7.99869 5.35785 8.25056 5.2354 8.3848 5.00603C8.39074 4.99588 8.39671 4.98577 8.40272 4.97568C8.62621 4.60045 8.51297 4.06916 8.09787 4.02055C7.9819 4.00697 7.86406 4 7.74468 4C5.98207 4 4.55319 5.51983 4.55319 7.39463C4.55319 9.26942 5.98207 10.7893 7.74468 10.7893C7.86406 10.7893 7.9819 10.7823 8.09787 10.7687C8.51298 10.7201 8.62621 10.1888 8.40272 9.81357C8.39671 9.80348 8.39074 9.79337 8.3848 9.78322Z" fill="#AEBECC"/>
<path d="M5.79429 16.9601C5.69768 16.7887 5.52714 16.6733 5.33922 16.6733H5.19149C4.13392 16.6733 3.2766 15.7614 3.2766 14.6365C3.2766 13.5116 4.13392 12.5997 5.19149 12.5997H5.33922C5.52714 12.5997 5.69768 12.4843 5.79429 12.3129C6.03012 11.8944 5.7742 11.2419 5.31548 11.2419H5.19149C3.42888 11.2419 2 12.7617 2 14.6365C2 16.5113 3.42888 18.0311 5.19149 18.0311H5.31548C5.7742 18.0311 6.03012 17.3786 5.79429 16.9601Z" fill="#AEBECC"/>
<path d="M15.5973 9.81357C15.3738 10.1888 15.487 10.7201 15.9021 10.7687C16.0181 10.7823 16.1359 10.7893 16.2553 10.7893C18.0179 10.7893 19.4468 9.26942 19.4468 7.39463C19.4468 5.51983 18.0179 4 16.2553 4C16.1359 4 16.0181 4.00697 15.9021 4.02055C15.487 4.06916 15.3738 4.60045 15.5973 4.97567C15.6033 4.98576 15.6093 4.99588 15.6152 5.00603C15.7494 5.23539 16.0013 5.35785 16.2553 5.35785C17.3129 5.35785 18.1702 6.26975 18.1702 7.39463C18.1702 8.51951 17.3129 9.4314 16.2553 9.4314C16.0013 9.4314 15.7494 9.55385 15.6152 9.78322C15.6093 9.79337 15.6033 9.80348 15.5973 9.81357Z" fill="#AEBECC"/>
<path d="M18.2057 16.9601C17.9699 17.3786 18.2258 18.0311 18.6845 18.0311H18.8085C20.5711 18.0311 22 16.5113 22 14.6365C22 12.7617 20.5711 11.2419 18.8085 11.2419H18.6845C18.2258 11.2419 17.9699 11.8944 18.2057 12.3129C18.3023 12.4843 18.4729 12.5997 18.6608 12.5997H18.8085C19.8661 12.5997 20.7234 13.5116 20.7234 14.6365C20.7234 15.7614 19.8661 16.6733 18.8085 16.6733H18.6608C18.4729 16.6733 18.3023 16.7887 18.2057 16.9601Z" fill="#AEBECC"/>
</svg>
