<svg width="102" height="100" viewBox="0 0 102 100" fill="none" xmlns="http://www.w3.org/2000/svg">
<circle cx="51.4997" cy="50.7143" r="42.8571" fill="#99B6C5"/>
<path d="M95.4486 22.3908C95.5603 22.072 96.0111 22.072 96.1228 22.3908L96.7167 24.0867C96.7658 24.2271 96.8969 24.3223 97.0456 24.3257L98.842 24.3665C99.1797 24.3741 99.3191 24.8029 99.0504 25.0076L97.621 26.0965C97.5026 26.1866 97.4526 26.3407 97.4953 26.4832L98.0117 28.2043C98.1088 28.5278 97.744 28.7928 97.4663 28.6005L95.989 27.5776C95.8667 27.4929 95.7047 27.4929 95.5824 27.5776L94.1051 28.6005C93.8274 28.7928 93.4627 28.5278 93.5597 28.2043L94.0761 26.4832C94.1189 26.3407 94.0688 26.1866 93.9505 26.0965L92.5211 25.0076C92.2524 24.8029 92.3917 24.3741 92.7294 24.3665L94.5258 24.3257C94.6745 24.3223 94.8056 24.2271 94.8548 24.0867L95.4486 22.3908Z" fill="#FC9D69"/>
<circle cx="7.21457" cy="82.8571" r="2.85714" fill="#FC9D69"/>
<circle cx="12.5714" cy="14.6429" r="1.78571" fill="#99B6C5"/>
<rect x="0.827637" y="27.6074" width="5.71429" height="5.71429" rx="0.357143" transform="rotate(-34 0.827637 27.6074)" fill="#FC9D69"/>
<path d="M25.5 18.8154C25.5 16.0539 27.7386 13.8154 30.5 13.8154H63.8158L77.5 29.4404V83.8154C77.5 86.5768 75.2614 88.8154 72.5 88.8154H30.5C27.7386 88.8154 25.5 86.5768 25.5 83.8154V18.8154Z" fill="white"/>
<path d="M77.5 29.4404H66.9C65.2431 29.4404 63.9 28.0972 63.9 26.4404V13.8154L77.5 29.4404Z" fill="#AEBECC"/>
<path d="M30.6796 40.3339C30.7909 38.9973 31.848 37.9811 33.1746 37.7838C35.3174 37.4652 38.5689 36.91 40.9861 36.1781C43.7848 35.3307 47.7018 33.569 49.7215 32.6266C50.5584 32.2362 51.525 32.2362 52.3618 32.6266C54.3816 33.569 58.2985 35.3307 61.0972 36.1781C63.5145 36.91 66.7659 37.4652 68.9087 37.7838C70.2354 37.9811 71.2924 38.9973 71.4038 40.3339C72.0121 47.637 72.2293 70.6236 51.8799 77.0802C51.3434 77.2504 50.7399 77.2504 50.2035 77.0802C29.8541 70.6236 30.0712 47.637 30.6796 40.3339Z" fill="#FA7328"/>
<path d="M36.2547 44.4916C36.3422 43.1518 37.3981 42.1227 38.7232 41.9062C40.2369 41.6589 42.2293 41.2803 43.7599 40.8003C45.6128 40.2192 48.1427 39.0649 49.6806 38.3311C50.5406 37.9208 51.5424 37.9208 52.4024 38.3311C53.9403 39.0649 56.4702 40.2192 58.3231 40.8003C59.8537 41.2803 61.8461 41.6589 63.3598 41.9062C64.6849 42.1227 65.7408 43.1518 65.8283 44.4916C66.219 50.4732 65.906 66.5993 51.9016 71.3919C51.3509 71.5804 50.7321 71.5804 50.1814 71.3919C36.177 66.5993 35.864 50.4732 36.2547 44.4916Z" fill="#FA7328" stroke="#F2F9FC" stroke-width="2"/>
</svg>
