<svg width="100" height="100" viewBox="0 0 100 100" fill="none" xmlns="http://www.w3.org/2000/svg">
<path d="M20.3789 91.2969H79.6198C81.248 91.3009 82.8176 90.6803 84.0139 89.5594C89.0043 84.8705 92.9967 79.1951 95.7456 72.8823C98.4944 66.5695 99.9415 59.7527 99.9978 52.8513C100.253 24.7889 77.7746 1.69874 50.1206 1.63251C22.451 1.56625 3.28425e-05 24.3088 3.28425e-05 52.3727C-0.00786678 59.3576 1.40939 66.2685 4.16256 72.6702C6.91573 79.072 10.9452 84.8259 15.9972 89.5698C17.191 90.6855 18.756 91.3024 20.3789 91.2969Z" fill="#C9DFE8"/>
<path d="M50.0001 0H49.9999C31.7746 0 17 15.966 17 35.661V64.3391C17 84.034 31.7746 100 49.9999 100H50.0001C68.2254 100 83 84.034 83 64.3391V35.661C83 15.966 68.2254 0 50.0001 0Z" fill="#EFF0F0"/>
<path d="M50 5.05051H50C33.9837 5.05051 21 19.1402 21 36.5208V64.4893C21 81.8698 33.9837 95.9596 50 95.9596H50C66.0163 95.9596 79 81.8698 79 64.4893V36.5208C79 19.1402 66.0163 5.05051 50 5.05051Z" fill="white"/>
<path d="M50.0003 96.4099C54.5447 96.4132 59.0243 95.3222 63.0666 93.2277C67.109 91.1331 70.5973 88.0955 73.2415 84.3673L59.7197 65.1241C59.1772 64.352 58.4591 63.7222 57.6256 63.2877C56.7922 62.8531 55.8676 62.6263 54.9294 62.6263H47.6065C47.2838 62.6263 46.9646 62.6936 46.6689 62.824C46.3732 62.9543 46.1074 63.145 45.8883 63.3839C45.6691 63.6229 45.5013 63.905 45.3953 64.2124C45.2894 64.5199 45.2476 64.8462 45.2727 65.1707L47.6748 96.3146C48.4419 96.3768 49.217 96.4086 50.0002 96.4099L50.0003 96.4099Z" fill="#F5B86E" fill-opacity="0.64"/>
<path d="M16.4227 48.765C18.485 47.1068 21.0441 46.2037 23.6813 46.2034C26.7692 46.2034 29.7306 47.4408 31.914 49.6433C33.5759 51.3196 34.6834 53.4506 35.1178 55.7463C35.3449 55.7236 35.5734 55.7121 35.8025 55.7121C37.6404 55.7121 39.4029 56.4486 40.7025 57.7595C42.002 59.0704 42.7321 60.8483 42.7321 62.7022C42.7321 64.5561 42.002 66.334 40.7025 67.6449C39.4029 68.9558 37.6404 69.6923 35.8025 69.6923L10.9578 69.6922C9.95628 69.6923 8.96581 69.481 8.04998 69.0721C7.13414 68.6632 6.31317 68.0657 5.63978 67.3179C4.96638 66.5701 4.45543 65.6885 4.13972 64.7297C3.82401 63.7709 3.71051 62.7562 3.80652 61.7506C3.90253 60.7449 4.20593 59.7707 4.69722 58.8903C5.18852 58.0099 5.85687 57.2429 6.65938 56.6385C7.46188 56.034 8.3808 55.6055 9.35717 55.3804C10.3335 55.1554 11.3458 55.1387 12.3289 55.3315C12.9171 52.7383 14.3604 50.4232 16.4227 48.765Z" fill="#E1EFF5"/>
<path d="M46.0399 26.3163C50.1857 26.3163 53.5466 22.9261 53.5466 18.7441C53.5466 14.5621 50.1857 11.1719 46.0399 11.1719C41.8941 11.1719 38.5332 14.5621 38.5332 18.7441C38.5332 22.9261 41.8941 26.3163 46.0399 26.3163Z" fill="#F5B86E" fill-opacity="0.64"/>
<path d="M49.2656 16.8626C51.2131 15.2967 53.6298 14.4438 56.1203 14.4436C59.0363 14.4436 61.8329 15.6121 63.8948 17.692C65.4642 19.275 66.5101 21.2874 66.9203 23.4554C67.1342 23.4339 67.35 23.4231 67.5669 23.4231C69.3025 23.4231 70.967 24.1185 72.1942 25.3565C73.4214 26.5944 74.1109 28.2734 74.1109 30.0241C74.1109 31.7748 73.4214 33.4539 72.1942 34.6918C70.967 35.9297 69.3025 36.6252 67.5669 36.6252H56.1291C56.1261 36.6252 56.1232 36.6252 56.1203 36.6252H44.1048C43.159 36.6252 42.2237 36.4257 41.3588 36.0396C40.494 35.6535 39.7187 35.0892 39.0828 34.383C38.4469 33.6768 37.9643 32.8442 37.6662 31.9388C37.3681 31.0334 37.2609 30.0751 37.3516 29.1255C37.4422 28.1758 37.7287 27.2558 38.1927 26.4244C38.6566 25.593 39.2878 24.8687 40.0456 24.2979C40.8035 23.7271 41.6713 23.3224 42.5933 23.1099C43.5153 22.8973 44.4712 22.8816 45.3996 23.0637C45.9551 20.6147 47.3181 18.4285 49.2656 16.8626Z" fill="#E1EFF5"/>
<path d="M93.4483 22.5875C93.5594 22.2675 94.012 22.2675 94.1231 22.5875L94.7171 24.2985C94.766 24.4393 94.8972 24.535 95.0463 24.5384L96.8492 24.5796C97.1861 24.5873 97.3258 25.0145 97.0586 25.2199L95.619 26.3261C95.5017 26.4163 95.4521 26.5694 95.4943 26.7111L96.0132 28.456C96.1096 28.78 95.7436 29.0442 95.4664 28.8506L93.9902 27.8195C93.8674 27.7337 93.704 27.7337 93.5812 27.8195L92.105 28.8506C91.8279 29.0442 91.4618 28.78 91.5582 28.456L92.0772 26.7111C92.1193 26.5694 92.0697 26.4163 91.9525 26.3261L90.5128 25.2199C90.2456 25.0145 90.3853 24.5873 90.7223 24.5796L92.5251 24.5384C92.6742 24.535 92.8055 24.4393 92.8544 24.2985L93.4483 22.5875Z" fill="#F5B86E"/>
<rect width="5.72993" height="5.74861" rx="0.357143" transform="matrix(0.826775 -0.562533 0.555854 0.83128 2 48.6159)" fill="#F5B86E"/>
<ellipse cx="79.8571" cy="87.6151" rx="2.85714" ry="2.88208" fill="#F5B86E"/>
</svg>
