<svg width="101" height="100" viewBox="0 0 101 100" fill="none" xmlns="http://www.w3.org/2000/svg">
<circle cx="50.9997" cy="50.7143" r="42.8571" fill="#99B6C5"/>
<path d="M94.9486 22.3908C95.0603 22.072 95.5111 22.072 95.6228 22.3908L96.2167 24.0867C96.2658 24.2271 96.3969 24.3223 96.5456 24.3257L98.342 24.3665C98.6797 24.3741 98.8191 24.8029 98.5504 25.0076L97.121 26.0965C97.0026 26.1866 96.9526 26.3407 96.9953 26.4832L97.5117 28.2043C97.6088 28.5278 97.244 28.7928 96.9663 28.6005L95.489 27.5776C95.3667 27.4929 95.2047 27.4929 95.0824 27.5776L93.6051 28.6005C93.3274 28.7928 92.9627 28.5278 93.0597 28.2043L93.5761 26.4832C93.6189 26.3407 93.5688 26.1866 93.4505 26.0965L92.0211 25.0076C91.7524 24.8029 91.8917 24.3741 92.2294 24.3665L94.0258 24.3257C94.1745 24.3223 94.3056 24.2271 94.3548 24.0867L94.9486 22.3908Z" fill="#FC9D69"/>
<circle cx="6.71457" cy="82.8571" r="2.85714" fill="#FC9D69"/>
<circle cx="12.0714" cy="14.6429" r="1.78571" fill="#99B6C5"/>
<rect x="0.327637" y="27.6074" width="5.71429" height="5.71429" rx="0.357143" transform="rotate(-34 0.327637 27.6074)" fill="#FC9D69"/>
<path fill-rule="evenodd" clip-rule="evenodd" d="M34.8972 59.0374H33.5072V61.1786C33.5072 62.1339 33.2424 62.8586 32.7129 63.3527C32.1834 63.8469 31.4884 64.1104 30.6279 64.1104C29.7675 64.1104 29.0725 63.8469 28.543 63.3527C28.0134 62.8586 27.7487 62.1339 27.7487 61.1786V59.0374H18.5483C17.754 59.0374 17.1583 58.8068 16.695 58.3456C16.2317 57.8845 16 57.2915 16 56.5997C16 55.908 16.2317 55.1833 16.7281 54.4915L28.0134 38.449C28.3113 38.0208 28.7084 37.6914 29.1387 37.4937C29.602 37.2961 30.0653 37.1643 30.5618 37.1643C31.356 37.1643 32.0179 37.4278 32.6136 37.922C33.2093 38.449 33.4741 39.1408 33.4741 40.0632V54.5574H34.8641C36.7505 54.5574 37.6772 55.2821 37.6772 56.7645C37.6772 58.2798 36.7505 59.0374 34.8972 59.0374ZM27.7818 46.2561L21.9571 54.5574H27.7818V46.2561Z" fill="white"/>
<path fill-rule="evenodd" clip-rule="evenodd" d="M40.4902 50.6048C40.4902 46.2236 41.3507 42.8306 43.0385 40.4918C44.7264 38.153 47.2085 37 50.4518 37C53.6951 37 56.1441 38.153 57.865 40.4918C59.5529 42.8306 60.4133 46.1907 60.4133 50.6048C60.4133 55.019 59.5529 58.4119 57.865 60.7508C56.1772 63.0896 53.6951 64.2426 50.4518 64.2426C47.2085 64.2426 44.7595 63.0896 43.0385 60.7508C41.3507 58.4119 40.4902 55.019 40.4902 50.6048ZM54.6548 50.5719C54.6548 47.3436 54.3239 45.0377 53.662 43.5883C53.0001 42.1718 51.9411 41.4471 50.4518 41.4471C48.9956 41.4471 47.9366 42.1718 47.2416 43.6212C46.5797 45.0707 46.2487 47.3766 46.2487 50.5719C46.2487 53.7672 46.5797 56.0731 47.2416 57.5555C47.9035 59.0049 48.9625 59.7296 50.4518 59.7296C51.908 59.7625 52.967 59.0378 53.662 57.5555C54.3239 56.106 54.6548 53.7672 54.6548 50.5719Z" fill="white"/>
<path fill-rule="evenodd" clip-rule="evenodd" d="M82.62 59.0374H81.23V61.1786C81.23 62.1339 80.9652 62.8586 80.4357 63.3527C79.9062 63.8469 79.2112 64.1104 78.3507 64.1104C77.4902 64.1104 76.7953 63.8469 76.2657 63.3527C75.7362 62.8586 75.4715 62.1339 75.4715 61.1786V59.0374H66.2711C65.4768 59.0374 64.8811 58.8068 64.4178 58.3456C63.9544 57.8845 63.7228 57.2915 63.7228 56.5997C63.7228 55.908 63.9544 55.1833 64.4509 54.4915L75.7362 38.4161C76.0341 37.9878 76.4312 37.6584 76.8614 37.4608C77.3248 37.2631 77.7881 37.1313 78.2845 37.1313C79.0788 37.1313 79.7407 37.3949 80.3364 37.889C80.9321 38.4161 81.1969 39.1078 81.1969 40.0302V54.5574H82.5869C84.4733 54.5574 85.3999 55.2821 85.3999 56.7644C85.3999 58.2797 84.4733 59.0374 82.62 59.0374ZM75.4715 46.2561L69.6799 54.5574H75.4715V46.2561Z" fill="white"/>
</svg>
