<svg width="101" height="100" viewBox="0 0 101 100" fill="none" xmlns="http://www.w3.org/2000/svg">
<circle cx="50.9997" cy="50.7143" r="42.8571" fill="#99B6C5"/>
<path d="M87.9716 44.8554C83.0544 39.9891 77.4456 36.1545 71.1454 33.3517C64.8451 30.5489 58.0993 29.1475 50.9078 29.1475C49.3097 29.1475 47.7269 29.2245 46.1596 29.3785C44.5922 29.5325 43.2861 29.7327 42.2411 29.9791L39.6596 27.4843C40.9504 27.1148 42.5177 26.8222 44.3617 26.6066C46.2057 26.391 48.3877 26.2832 50.9078 26.2832C58.591 26.2832 65.7518 27.7615 72.3901 30.7183C79.0284 33.6751 84.8983 37.7407 90 42.915L87.9716 44.8554ZM73.0355 59.7317C72.2364 58.9925 71.5295 58.3765 70.9149 57.8838C70.3002 57.391 69.5012 56.8982 68.5177 56.4054L63.4468 51.231C64.8605 51.6006 66.5355 52.4014 68.4716 53.6334C70.4078 54.8654 72.3593 56.467 74.3262 58.4381L73.0355 59.7317ZM80.6879 81.3532L50.8156 51.3234C46.6974 51.385 42.7482 52.2474 38.9681 53.9106C35.1879 55.5738 32.0071 57.7914 29.4255 60.5633L27.4894 58.6229C30.0709 55.9742 33.1288 53.7104 36.6631 51.8316C40.1974 49.9528 43.9929 48.8286 48.0496 48.459L32.2837 32.7511C29.3333 33.7983 26.1678 35.4461 22.7872 37.6945C19.4066 39.9429 16.4255 42.3299 13.844 44.8554L12 42.915C14.7045 40.2047 17.6548 37.7253 20.8511 35.4769C24.0473 33.2285 27.0591 31.5191 29.8865 30.3487L21.0355 21.4784L22.5106 20L82.2553 79.8748L80.6879 81.3532ZM50.9078 82L42.8865 73.9612C43.9314 72.9141 45.13 72.0979 46.4823 71.5127C47.8345 70.9275 49.3097 70.6349 50.9078 70.6349C52.5059 70.6349 53.9811 70.9275 55.3333 71.5127C56.6856 72.0979 57.8842 72.9141 58.9291 73.9612L50.9078 82Z" fill="white"/>
<path d="M94.9486 22.3908C95.0603 22.072 95.5111 22.072 95.6228 22.3908L96.2167 24.0867C96.2658 24.2271 96.3969 24.3223 96.5456 24.3257L98.342 24.3665C98.6797 24.3741 98.8191 24.8029 98.5504 25.0076L97.121 26.0965C97.0026 26.1866 96.9526 26.3407 96.9953 26.4832L97.5117 28.2043C97.6088 28.5278 97.244 28.7928 96.9663 28.6005L95.489 27.5776C95.3667 27.4929 95.2047 27.4929 95.0824 27.5776L93.6051 28.6005C93.3274 28.7928 92.9627 28.5278 93.0597 28.2043L93.5761 26.4832C93.6189 26.3407 93.5688 26.1866 93.4505 26.0965L92.0211 25.0076C91.7524 24.8029 91.8917 24.3741 92.2294 24.3665L94.0258 24.3257C94.1745 24.3223 94.3056 24.2271 94.3548 24.0867L94.9486 22.3908Z" fill="#FC9D69"/>
<circle cx="6.71457" cy="82.8571" r="2.85714" fill="#FC9D69"/>
<circle cx="12.0714" cy="14.6429" r="1.78571" fill="#D1E9F3"/>
<rect x="0.327637" y="27.6074" width="5.71429" height="5.71429" rx="0.357143" transform="rotate(-34 0.327637 27.6074)" fill="#FC9D69"/>
</svg>
