<svg width="112" height="106" viewBox="0 0 112 106" fill="none" xmlns="http://www.w3.org/2000/svg">
<path d="M99.9486 22.3912C100.06 22.0724 100.511 22.0724 100.623 22.3912L101.217 24.0871C101.266 24.2275 101.397 24.3227 101.546 24.3261L103.342 24.3668C103.68 24.3745 103.819 24.8033 103.55 25.008L102.121 26.0968C102.003 26.187 101.953 26.3411 101.995 26.4836L102.512 28.2047C102.609 28.5282 102.244 28.7932 101.966 28.6009L100.489 27.578C100.367 27.4933 100.205 27.4933 100.082 27.578L98.6051 28.6009C98.3274 28.7932 97.9627 28.5282 98.0597 28.2047L98.5761 26.4836C98.6189 26.3411 98.5688 26.187 98.4505 26.0968L97.0211 25.008C96.7524 24.8033 96.8917 24.3745 97.2294 24.3668L99.0258 24.3261C99.1745 24.3227 99.3056 24.2275 99.3548 24.0871L99.9486 22.3912Z" fill="#F5B86E"/>
<rect x="8.5" y="48.1953" width="5.71429" height="5.71429" rx="0.357143" transform="rotate(-34 8.5 48.1953)" fill="#F5B86E"/>
<circle cx="55.7321" cy="50.7143" r="42.8571" fill="#CFE7F0"/>
<mask id="mask0_9402_81470" style="mask-type:alpha" maskUnits="userSpaceOnUse" x="12" y="7" width="87" height="87">
<circle cx="55.7321" cy="50.7143" r="42.8571" fill="#CFE7F0"/>
</mask>
<g mask="url(#mask0_9402_81470)">
</g>
<g filter="url(#filter0_d_9402_81470)">
<rect x="12.5" y="10" width="64.2353" height="24" rx="2.40934" fill="white" shape-rendering="crispEdges"/>
<circle cx="20.9697" cy="18.4706" r="4.23529" fill="#FAF7F7"/>
<rect x="28.0293" y="14.5882" width="42.3529" height="2.82353" rx="1.41176" fill="#F0F0F0"/>
<rect x="28.0293" y="19.5294" width="36.3025" height="2.82353" rx="1.41176" fill="#F0F0F0"/>
<rect x="16.7344" y="26.9412" width="55.7647" height="2.82353" rx="1.41176" fill="#F0F0F0"/>
</g>
<g filter="url(#filter1_d_9402_81470)">
<rect x="12.5" y="66" width="64.2353" height="24" rx="2.40934" fill="white" shape-rendering="crispEdges"/>
<circle cx="20.9697" cy="74.4706" r="4.23529" fill="#FAF7F7"/>
<rect x="28.0293" y="70.5882" width="42.3529" height="2.82353" rx="1.41176" fill="#F0F0F0"/>
<rect x="28.0293" y="75.5294" width="36.3025" height="2.82353" rx="1.41176" fill="#F0F0F0"/>
<rect x="16.7344" y="82.9412" width="55.7647" height="2.82353" rx="1.41176" fill="#F0F0F0"/>
</g>
<g filter="url(#filter2_d_9402_81470)">
<rect x="35.5" y="38" width="64.2353" height="24" rx="2.40934" fill="white" shape-rendering="crispEdges"/>
<circle cx="43.9697" cy="46.4706" r="4.23529" fill="#FAF7F7"/>
<rect x="51.0293" y="42.5882" width="42.3529" height="2.82353" rx="1.41176" fill="#F0F0F0"/>
<rect x="51.0293" y="47.5294" width="36.3025" height="2.82353" rx="1.41176" fill="#F0F0F0"/>
<rect x="39.7344" y="54.9412" width="55.7647" height="2.82353" rx="1.41176" fill="#F0F0F0"/>
</g>
<circle cx="85.5" cy="84.5" r="4.5" fill="#F5B86E"/>
<circle cx="100.5" cy="75.5" r="2.5" fill="#F5B86E"/>
<path d="M19.966 72C19.7323 72.0307 19.5045 72.1204 19.3063 72.269L18.7688 72.6722C18.5996 72.7991 18.5 72.9982 18.5 73.2097V75.3182C18.5 75.8589 19.1173 76.1675 19.5499 75.8431C19.6758 75.7486 19.8185 75.6877 19.966 75.6602V72Z" fill="#E66891"/>
<path d="M20.3326 75.6602C20.4801 75.6877 20.6228 75.7486 20.7487 75.8431L20.7724 75.8608C20.9706 76.0095 21.1983 76.0991 21.4321 76.1298V72.4697C21.2845 72.4422 21.1419 72.3812 21.0159 72.2867L20.9923 72.269C20.7941 72.1204 20.5663 72.0307 20.3326 72V75.6602Z" fill="#E66891"/>
<path d="M21.7986 72.4697V76.1298C22.0324 76.0991 22.2601 76.0095 22.4583 75.8608L22.9959 75.4577C23.1651 75.3308 23.2646 75.1316 23.2646 74.9201V72.8117C23.2646 72.271 22.6473 71.9623 22.2148 72.2867C22.0888 72.3812 21.9462 72.4422 21.7986 72.4697Z" fill="#E66891"/>
<circle cx="8.78571" cy="31.7857" r="1.78571" fill="#F5B86E"/>
<defs>
<filter id="filter0_d_9402_81470" x="0.735294" y="2.35294" width="87.7638" height="47.5294" filterUnits="userSpaceOnUse" color-interpolation-filters="sRGB">
<feFlood flood-opacity="0" result="BackgroundImageFix"/>
<feColorMatrix in="SourceAlpha" type="matrix" values="0 0 0 0 0 0 0 0 0 0 0 0 0 0 0 0 0 0 127 0" result="hardAlpha"/>
<feOffset dy="4.11765"/>
<feGaussianBlur stdDeviation="5.88235"/>
<feComposite in2="hardAlpha" operator="out"/>
<feColorMatrix type="matrix" values="0 0 0 0 0 0 0 0 0 0 0 0 0 0 0 0 0 0 0.05 0"/>
<feBlend mode="normal" in2="BackgroundImageFix" result="effect1_dropShadow_9402_81470"/>
<feBlend mode="normal" in="SourceGraphic" in2="effect1_dropShadow_9402_81470" result="shape"/>
</filter>
<filter id="filter1_d_9402_81470" x="0.735294" y="58.3529" width="87.7638" height="47.5294" filterUnits="userSpaceOnUse" color-interpolation-filters="sRGB">
<feFlood flood-opacity="0" result="BackgroundImageFix"/>
<feColorMatrix in="SourceAlpha" type="matrix" values="0 0 0 0 0 0 0 0 0 0 0 0 0 0 0 0 0 0 127 0" result="hardAlpha"/>
<feOffset dy="4.11765"/>
<feGaussianBlur stdDeviation="5.88235"/>
<feComposite in2="hardAlpha" operator="out"/>
<feColorMatrix type="matrix" values="0 0 0 0 0 0 0 0 0 0 0 0 0 0 0 0 0 0 0.05 0"/>
<feBlend mode="normal" in2="BackgroundImageFix" result="effect1_dropShadow_9402_81470"/>
<feBlend mode="normal" in="SourceGraphic" in2="effect1_dropShadow_9402_81470" result="shape"/>
</filter>
<filter id="filter2_d_9402_81470" x="23.7353" y="30.3529" width="87.7638" height="47.5294" filterUnits="userSpaceOnUse" color-interpolation-filters="sRGB">
<feFlood flood-opacity="0" result="BackgroundImageFix"/>
<feColorMatrix in="SourceAlpha" type="matrix" values="0 0 0 0 0 0 0 0 0 0 0 0 0 0 0 0 0 0 127 0" result="hardAlpha"/>
<feOffset dy="4.11765"/>
<feGaussianBlur stdDeviation="5.88235"/>
<feComposite in2="hardAlpha" operator="out"/>
<feColorMatrix type="matrix" values="0 0 0 0 0 0 0 0 0 0 0 0 0 0 0 0 0 0 0.05 0"/>
<feBlend mode="normal" in2="BackgroundImageFix" result="effect1_dropShadow_9402_81470"/>
<feBlend mode="normal" in="SourceGraphic" in2="effect1_dropShadow_9402_81470" result="shape"/>
</filter>
</defs>
</svg>
