<svg width="143" height="138" viewBox="0 0 143 138" fill="none" xmlns="http://www.w3.org/2000/svg">
<path d="M102.949 30.3913C103.06 30.0725 103.511 30.0725 103.623 30.3913L104.217 32.0872C104.266 32.2276 104.397 32.3228 104.546 32.3262L106.342 32.3669C106.68 32.3746 106.819 32.8034 106.55 33.0081L105.121 34.097C105.003 34.1871 104.953 34.3412 104.995 34.4837L105.512 36.2048C105.609 36.5283 105.244 36.7933 104.966 36.601L103.489 35.5781C103.367 35.4934 103.205 35.4934 103.082 35.5781L101.605 36.601C101.327 36.7933 100.963 36.5283 101.06 36.2048L101.576 34.4837C101.619 34.3412 101.569 34.1871 101.45 34.097L100.021 33.0081C99.7524 32.8034 99.8917 32.3746 100.229 32.3669L102.026 32.3262C102.175 32.3228 102.306 32.2276 102.355 32.0872L102.949 30.3913Z" fill="#F5B86E"/>
<circle cx="16.0714" cy="41.6429" r="1.78571" fill="#CCEAE7"/>
<rect x="11.5" y="56.1953" width="5.71429" height="5.71429" rx="0.357143" transform="rotate(-34 11.5 56.1953)" fill="#F5B86E"/>
<circle cx="57.7857" cy="56.7857" r="47.7857" fill="#CEE5EE"/>
<mask id="mask0_7984_83512" style="mask-type:alpha" maskUnits="userSpaceOnUse" x="10" y="9" width="96" height="96">
<circle cx="57.7857" cy="56.7857" r="47.7857" fill="#CCEAE7"/>
</mask>
<g mask="url(#mask0_7984_83512)">
</g>
<g filter="url(#filter0_d_7984_83512)">
<rect x="15.5" y="18" width="64.2353" height="24" rx="2.40934" fill="white" shape-rendering="crispEdges"/>
<circle cx="23.9706" cy="26.4706" r="4.23529" fill="#EFF0F0"/>
<rect x="31.0293" y="22.5884" width="42.3529" height="2.82353" rx="1.41176" fill="#F0F0F0"/>
<rect x="31.0293" y="27.5295" width="36.3025" height="2.82353" rx="1.41176" fill="#F0F0F0"/>
<rect x="19.7354" y="34.9412" width="55.7647" height="2.82353" rx="1.41176" fill="#F0F0F0"/>
</g>
<g filter="url(#filter1_d_7984_83512)">
<rect x="15.5" y="74" width="64.2353" height="24" rx="2.40934" fill="white" shape-rendering="crispEdges"/>
<circle cx="23.9706" cy="82.4706" r="4.23529" fill="#EFF0F0"/>
<rect x="31.0293" y="78.5884" width="42.3529" height="2.82353" rx="1.41176" fill="#F0F0F0"/>
<rect x="31.0293" y="83.5295" width="36.3025" height="2.82353" rx="1.41176" fill="#F0F0F0"/>
<rect x="19.7354" y="90.9412" width="55.7647" height="2.82353" rx="1.41176" fill="#F0F0F0"/>
</g>
<g filter="url(#filter2_d_7984_83512)">
<rect x="38.5" y="46" width="64.2353" height="24" rx="2.40934" fill="white" shape-rendering="crispEdges"/>
<circle cx="46.9706" cy="54.4706" r="4.23529" fill="#EFF0F0"/>
<rect x="54.0293" y="50.5884" width="42.3529" height="2.82353" rx="1.41176" fill="#F0F0F0"/>
<rect x="54.0293" y="55.5295" width="36.3025" height="2.82353" rx="1.41176" fill="#F0F0F0"/>
<rect x="42.7354" y="62.9412" width="55.7647" height="2.82353" rx="1.41176" fill="#F0F0F0"/>
</g>
<path d="M58.5666 69.3329C57.4833 69.3329 56.5697 68.9492 55.8258 68.1818C55.0801 67.4144 54.7524 66.5117 54.8427 65.4735C54.9781 63.5776 55.4295 61.9301 56.1968 60.5308C56.9642 59.1315 58.1829 57.687 59.8531 56.1974C61.7038 54.5724 63.1139 53.1614 64.0835 51.9643C65.0549 50.769 65.5406 49.404 65.5406 47.8693C65.5406 46.0186 64.9204 44.4839 63.68 43.2651C62.4377 42.0464 60.7107 41.437 58.4989 41.437C57.0545 41.437 55.8249 41.7413 54.8102 42.3497C53.7936 42.96 52.9694 43.7165 52.3375 44.6193C51.7055 45.5221 50.9273 46.1315 50.0029 46.4474C49.0766 46.7634 48.1847 46.7408 47.327 46.3797C46.2888 45.9283 45.5784 45.1835 45.1956 44.1453C44.811 43.1072 44.8895 42.1367 45.4312 41.2339C46.7402 39.2026 48.5006 37.5099 50.7125 36.1558C52.9243 34.8016 55.5197 34.1245 58.4989 34.1245C63.2385 34.1245 66.8839 35.4453 69.4352 38.0868C71.9846 40.7265 73.2593 43.8971 73.2593 47.5985C73.2593 49.8554 72.7745 51.7856 71.805 53.3889C70.8336 54.9904 69.3097 56.8068 67.2333 58.8381C65.6986 60.2825 64.6152 61.4561 63.9833 62.3589C63.3513 63.2617 62.9225 64.2999 62.6968 65.4735C62.5163 66.6019 62.0423 67.5273 61.275 68.2495C60.5076 68.9717 59.6048 69.3329 58.5666 69.3329ZM58.4989 85.5829C57.0093 85.5829 55.7346 85.0529 54.6747 83.9931C53.6131 82.9314 53.0822 81.6558 53.0822 80.1662C53.0822 78.6766 53.6131 77.401 54.6747 76.3393C55.7346 75.2795 57.0093 74.7495 58.4989 74.7495C59.9885 74.7495 61.2641 75.2795 62.3258 76.3393C63.3857 77.401 63.9156 78.6766 63.9156 80.1662C63.9156 81.6558 63.3857 82.9314 62.3258 83.9931C61.2641 85.0529 59.9885 85.5829 58.4989 85.5829Z" fill="#F86A53"/>
<path opacity="0.8" d="M99.6231 87.5407L92.4077 94.7134L119.561 121.706L126.776 114.533L99.6231 87.5407Z" fill="#EFF0F0"/>
<path d="M16.6536 16.6025C8.70176 24.5073 3.28647 34.5787 1.09255 45.543C-1.10136 56.5073 0.0246397 67.8721 4.32817 78.2003C8.6317 88.5285 15.9195 97.3561 25.2699 103.567C34.6203 109.778 45.6135 113.093 56.8591 113.093C68.1048 113.093 79.0979 109.778 88.4483 103.567C97.7988 97.3561 105.087 88.5285 109.39 78.2003C113.694 67.8721 114.82 56.5073 112.626 45.543C110.432 34.5787 105.016 24.5073 97.0646 16.6025C91.7847 11.3539 85.5166 7.19043 78.6182 4.3499C71.7197 1.50937 64.326 0.0473633 56.8591 0.0473633C49.3923 0.0473633 41.9985 1.50937 35.1001 4.3499C28.2016 7.19043 21.9335 11.3539 16.6536 16.6025ZM89.6489 89.1658C83.1637 95.6126 74.901 100.003 65.9058 101.782C56.9105 103.56 47.5867 102.647 39.1134 99.1584C30.6401 95.6694 23.3978 89.761 18.3024 82.1803C13.207 74.5997 10.4873 65.6872 10.4873 56.57C10.4874 47.4528 13.207 38.5404 18.3024 30.9597C23.3978 23.379 30.6401 17.4706 39.1134 13.9816C47.5868 10.4926 56.9106 9.57976 65.9058 11.3584C74.901 13.1371 83.1637 17.5275 89.6489 23.9743C98.3453 32.6193 103.231 44.3443 103.231 56.5701C103.231 68.7958 98.3452 80.5209 89.6489 89.1658Z" fill="#EFF0F0"/>
<path d="M101.949 8.96259C102.06 8.64378 102.511 8.64378 102.623 8.96259L103.217 10.6585C103.266 10.7989 103.397 10.8941 103.546 10.8975L105.342 10.9382C105.68 10.9459 105.819 11.3747 105.55 11.5794L104.121 12.6682C104.003 12.7584 103.953 12.9125 103.995 13.055L104.512 14.7761C104.609 15.0996 104.244 15.3646 103.966 15.1723L102.489 14.1494C102.367 14.0647 102.205 14.0647 102.082 14.1494L100.605 15.1723C100.327 15.3646 99.9627 15.0996 100.06 14.7761L100.576 13.055C100.619 12.9125 100.569 12.7584 100.45 12.6682L99.0211 11.5794C98.7524 11.3747 98.8917 10.9459 99.2294 10.9382L101.026 10.8975C101.175 10.8941 101.306 10.7989 101.355 10.6585L101.949 8.96259Z" fill="#F5B86E"/>
<path d="M105.35 100.745L105.35 100.745C100.828 105.24 100.828 112.528 105.35 117.023L122.49 134.062C127.012 138.557 134.343 138.557 138.865 134.062C143.387 129.567 143.387 122.279 138.865 117.784L121.724 100.745C117.203 96.25 109.871 96.25 105.35 100.745Z" fill="#CEE5EE"/>
<ellipse cx="88.8571" cy="125.16" rx="2.85714" ry="2.84024" fill="#F5B86E"/>
<ellipse cx="2.85714" cy="23.7633" rx="2.85714" ry="2.84024" fill="#F5B86E"/>
<defs>
<filter id="filter0_d_7984_83512" x="3.73529" y="10.3529" width="87.7648" height="47.5294" filterUnits="userSpaceOnUse" color-interpolation-filters="sRGB">
<feFlood flood-opacity="0" result="BackgroundImageFix"/>
<feColorMatrix in="SourceAlpha" type="matrix" values="0 0 0 0 0 0 0 0 0 0 0 0 0 0 0 0 0 0 127 0" result="hardAlpha"/>
<feOffset dy="4.11765"/>
<feGaussianBlur stdDeviation="5.88235"/>
<feComposite in2="hardAlpha" operator="out"/>
<feColorMatrix type="matrix" values="0 0 0 0 0 0 0 0 0 0 0 0 0 0 0 0 0 0 0.05 0"/>
<feBlend mode="normal" in2="BackgroundImageFix" result="effect1_dropShadow_7984_83512"/>
<feBlend mode="normal" in="SourceGraphic" in2="effect1_dropShadow_7984_83512" result="shape"/>
</filter>
<filter id="filter1_d_7984_83512" x="3.73529" y="66.3529" width="87.7648" height="47.5294" filterUnits="userSpaceOnUse" color-interpolation-filters="sRGB">
<feFlood flood-opacity="0" result="BackgroundImageFix"/>
<feColorMatrix in="SourceAlpha" type="matrix" values="0 0 0 0 0 0 0 0 0 0 0 0 0 0 0 0 0 0 127 0" result="hardAlpha"/>
<feOffset dy="4.11765"/>
<feGaussianBlur stdDeviation="5.88235"/>
<feComposite in2="hardAlpha" operator="out"/>
<feColorMatrix type="matrix" values="0 0 0 0 0 0 0 0 0 0 0 0 0 0 0 0 0 0 0.05 0"/>
<feBlend mode="normal" in2="BackgroundImageFix" result="effect1_dropShadow_7984_83512"/>
<feBlend mode="normal" in="SourceGraphic" in2="effect1_dropShadow_7984_83512" result="shape"/>
</filter>
<filter id="filter2_d_7984_83512" x="26.7353" y="38.3529" width="87.7648" height="47.5294" filterUnits="userSpaceOnUse" color-interpolation-filters="sRGB">
<feFlood flood-opacity="0" result="BackgroundImageFix"/>
<feColorMatrix in="SourceAlpha" type="matrix" values="0 0 0 0 0 0 0 0 0 0 0 0 0 0 0 0 0 0 127 0" result="hardAlpha"/>
<feOffset dy="4.11765"/>
<feGaussianBlur stdDeviation="5.88235"/>
<feComposite in2="hardAlpha" operator="out"/>
<feColorMatrix type="matrix" values="0 0 0 0 0 0 0 0 0 0 0 0 0 0 0 0 0 0 0.05 0"/>
<feBlend mode="normal" in2="BackgroundImageFix" result="effect1_dropShadow_7984_83512"/>
<feBlend mode="normal" in="SourceGraphic" in2="effect1_dropShadow_7984_83512" result="shape"/>
</filter>
</defs>
</svg>
