<svg width="101" height="128" viewBox="0 0 101 128" fill="none" xmlns="http://www.w3.org/2000/svg">
<circle cx="50.9997" cy="64.7143" r="42.8571" fill="#99B6C5"/>
<g filter="url(#filter0_d_8342_84759)">
<rect x="18.0835" y="15.9539" width="65.7143" height="96.4286" rx="5" fill="white"/>
</g>
<rect x="23.0835" y="59" width="26.6667" height="5.83333" rx="2.91667" fill="#336D8A"/>
<rect x="23.0835" y="68.1667" width="55.8333" height="10" rx="3.33333" fill="#336D8A"/>
<rect x="23.0835" y="86.5" width="49.1667" height="5.83333" rx="2.91667" fill="#336D8A"/>
<rect x="23.0835" y="95.6667" width="45.8333" height="10" rx="3.33333" fill="#336D8A"/>
<circle cx="50.5832" cy="36.5004" r="14.1667" fill="#E6EDF0"/>
<path d="M53.3501 33.5876C53.3087 33.5816 53.2674 33.5816 53.2261 33.5876C52.3109 33.558 51.5847 32.8082 51.5847 31.8872C51.5847 30.9484 52.3464 30.1808 53.291 30.1808C54.2298 30.1808 54.9973 30.9425 54.9973 31.8872C54.9914 32.8082 54.2652 33.558 53.3501 33.5876Z" fill="black"/>
<path d="M55.2749 37.6791C54.6136 38.1219 53.6866 38.2873 52.8305 38.1751C53.0549 37.6909 53.173 37.1537 53.1789 36.5869C53.1789 35.9964 53.049 35.4355 52.801 34.9455C53.6748 34.8274 54.6018 34.9927 55.269 35.4355C56.2018 36.0496 56.2018 37.0592 55.2749 37.6791Z" fill="black"/>
<path d="M46.8022 33.5876C46.8436 33.5816 46.8849 33.5816 46.9262 33.5876C47.8414 33.558 48.5676 32.8082 48.5676 31.8872C48.5676 30.9425 47.806 30.1808 46.8613 30.1808C45.9225 30.1808 45.1609 30.9425 45.1609 31.8872C45.1609 32.8082 45.8871 33.558 46.8022 33.5876Z" fill="black"/>
<path d="M46.8673 36.5868C46.8673 37.1595 46.9913 37.7027 47.2157 38.1928C46.3832 38.2813 45.5153 38.1042 44.8776 37.685C43.9448 37.0651 43.9448 36.0555 44.8776 35.4355C45.5094 35.0104 46.4009 34.8392 47.2393 34.9337C46.9972 35.4296 46.8673 35.9905 46.8673 36.5868Z" fill="black"/>
<path d="M50.1559 38.3699C50.1086 38.364 50.0555 38.364 50.0024 38.3699C48.916 38.3345 48.0481 37.443 48.0481 36.3448C48.054 35.223 48.9573 34.3138 50.085 34.3138C51.2068 34.3138 52.1161 35.223 52.1161 36.3448C52.1102 37.443 51.2482 38.3345 50.1559 38.3699Z" fill="black"/>
<path d="M48.237 39.5921C47.3455 40.1884 47.3455 41.1685 48.237 41.7589C49.2525 42.4379 50.9175 42.4379 51.933 41.7589C52.8245 41.1626 52.8245 40.1825 51.933 39.5921C50.9234 38.9131 49.2584 38.9131 48.237 39.5921Z" fill="black"/>
<circle cx="86.5357" cy="99.9524" r="14.2857" fill="#FA7328"/>
<path d="M93.6667 95.2333V103.16C93.6667 103.807 93.14 104.4 92.4933 104.48L92.2867 104.507C91.1933 104.653 89.6533 105.107 88.4133 105.627C87.98 105.807 87.5 105.48 87.5 105.007V95.7333C87.5 95.4866 87.64 95.26 87.86 95.14C89.08 94.48 90.9267 93.8933 92.18 93.7866H92.22C93.02 93.7866 93.6667 94.4333 93.6667 95.2333Z" fill="white"/>
<path d="M86.14 95.14C84.92 94.48 83.0733 93.8933 81.82 93.7866H81.7733C80.9733 93.7866 80.3267 94.4333 80.3267 95.2333V103.16C80.3267 103.807 80.8533 104.4 81.5 104.48L81.7067 104.507C82.8 104.653 84.34 105.107 85.58 105.627C86.0133 105.807 86.4933 105.48 86.4933 105.007V95.7333C86.4933 95.48 86.36 95.26 86.14 95.14ZM82.3333 97.16H83.8333C84.1067 97.16 84.3333 97.3866 84.3333 97.66C84.3333 97.94 84.1067 98.16 83.8333 98.16H82.3333C82.06 98.16 81.8333 97.94 81.8333 97.66C81.8333 97.3866 82.06 97.16 82.3333 97.16ZM84.3333 100.16H82.3333C82.06 100.16 81.8333 99.94 81.8333 99.66C81.8333 99.3866 82.06 99.16 82.3333 99.16H84.3333C84.6067 99.16 84.8333 99.3866 84.8333 99.66C84.8333 99.94 84.6067 100.16 84.3333 100.16Z" fill="white"/>
<path d="M94.9486 36.3908C95.0603 36.072 95.5111 36.072 95.6228 36.3908L96.2167 38.0867C96.2658 38.2271 96.3969 38.3223 96.5456 38.3257L98.342 38.3665C98.6797 38.3741 98.8191 38.8029 98.5504 39.0076L97.121 40.0965C97.0026 40.1866 96.9526 40.3407 96.9953 40.4832L97.5117 42.2043C97.6088 42.5278 97.244 42.7928 96.9663 42.6005L95.489 41.5776C95.3667 41.4929 95.2047 41.4929 95.0824 41.5776L93.6051 42.6005C93.3274 42.7928 92.9627 42.5278 93.0597 42.2043L93.5761 40.4832C93.6189 40.3407 93.5688 40.1866 93.4505 40.0965L92.0211 39.0076C91.7524 38.8029 91.8917 38.3741 92.2294 38.3665L94.0258 38.3257C94.1745 38.3223 94.3056 38.2271 94.3548 38.0867L94.9486 36.3908Z" fill="#FC9D69"/>
<circle cx="6.71457" cy="96.8571" r="2.85714" fill="#FC9D69"/>
<circle cx="12.0714" cy="28.6429" r="1.78571" fill="#CEE7F1"/>
<rect x="0.327637" y="41.6074" width="5.71429" height="5.71429" rx="0.357143" transform="rotate(-34 0.327637 41.6074)" fill="#FC9D69"/>
<defs>
<filter id="filter0_d_8342_84759" x="3.0835" y="0.953858" width="95.7144" height="126.429" filterUnits="userSpaceOnUse" color-interpolation-filters="sRGB">
<feFlood flood-opacity="0" result="BackgroundImageFix"/>
<feColorMatrix in="SourceAlpha" type="matrix" values="0 0 0 0 0 0 0 0 0 0 0 0 0 0 0 0 0 0 127 0" result="hardAlpha"/>
<feOffset/>
<feGaussianBlur stdDeviation="7.5"/>
<feComposite in2="hardAlpha" operator="out"/>
<feColorMatrix type="matrix" values="0 0 0 0 0 0 0 0 0 0.433333 0 0 0 0 0.392889 0 0 0 0.06 0"/>
<feBlend mode="normal" in2="BackgroundImageFix" result="effect1_dropShadow_8342_84759"/>
<feBlend mode="normal" in="SourceGraphic" in2="effect1_dropShadow_8342_84759" result="shape"/>
</filter>
</defs>
</svg>
