<svg width="167" height="250" viewBox="0 0 167 250" fill="none" xmlns="http://www.w3.org/2000/svg">
    <path
        d="M163.5 160.176C163.5 208.084 127.435 246.5 83.5 246.5C39.565 246.5 3.5 208.084 3.5 160.176V89.8237C3.5 41.9158 39.565 3.5 83.5 3.5C127.435 3.5 163.5 41.9158 163.5 89.8237V160.176Z"
        stroke="white" stroke-width="7" />
    <path
        d="M84.1653 86C95.8308 86 106.144 90.7027 112.399 98.8108C116.457 104 119.162 110 118.993 123.297V164H109.694V123.946C109.694 112.757 107.496 108.054 105.129 104.811C100.395 98.3243 92.7876 94.4324 83.9963 94.4324C75.2049 94.4324 67.5971 98.1622 62.8633 104.811C60.4964 108.216 58.2985 112.757 58.2985 123.946V164H49V123.297C49 110.162 51.705 104 55.7626 98.8108C62.0179 90.7027 72.3309 86 83.9963 86H84.1653Z"
        fill="white" />
</svg>