<svg width="134" height="200" viewBox="0 0 134 200" fill="none" xmlns="http://www.w3.org/2000/svg">
<path d="M131.45 128.141C131.45 166.979 102.284 198.25 66.6 198.25C30.9164 198.25 1.75 166.979 1.75 128.141V71.8589C1.75 33.0211 30.9164 1.75 66.6 1.75C102.284 1.75 131.45 33.0211 131.45 71.8589V128.141Z" stroke="white" stroke-width="3.5"/>
<path d="M28.6793 70.4004H28.6136C25.2928 70.4004 22.3526 71.7967 20.5478 74.2293C19.3825 75.7669 18.6056 77.5868 18.6056 81.4735V93.5291H21.6554V81.6704C21.6554 78.4819 22.259 77.1771 22.9124 76.2403C24.1893 74.3765 26.2789 73.3044 28.6455 73.2984C31.012 73.3044 33.1016 74.3745 34.3805 76.2403C35.0339 77.1771 35.6375 78.4819 35.6375 81.6704V93.5291H38.6873V81.4735C38.6873 77.5868 37.9104 75.7669 36.7451 74.2293C34.9403 71.7967 32.0001 70.4004 28.6793 70.4004Z" fill="white"/>
<path d="M90.7413 95.4127H87.6756V129.509H90.7413V95.4127Z" fill="white"/>
<path d="M28.8925 127.084C31.4204 127.084 33.759 126.034 35.6534 124.045L35.7451 123.946L37.9523 125.988L37.8626 126.088C35.6236 128.572 32.3726 129.998 28.9423 129.998C25.765 129.998 22.7729 128.871 20.5139 126.82C18.1195 124.646 16.8008 121.591 16.8008 118.217C16.8008 111.612 21.9402 106.436 28.502 106.436C31.8865 106.436 34.7889 107.62 37.1236 109.951L37.2152 110.04L35.273 112.25L35.1694 112.151C33.2789 110.321 30.9741 109.352 28.502 109.352C23.741 109.352 19.8665 113.328 19.8665 118.217C19.8665 123.19 23.8307 127.084 28.8925 127.084Z" fill="white"/>
<path d="M41.9662 106.927H45.032V129.511H41.9662V106.927Z" fill="white"/>
<path d="M60.6874 106.438C57.544 106.438 55.0181 107.962 53.7671 109.575V106.927H50.7013V129.511H53.7671V114.183C54.9563 111.291 57.7133 109.352 60.6376 109.352C61.285 109.352 61.7571 109.37 61.9384 109.4L62.0759 109.424L62.5081 106.561L62.3747 106.54C62.0699 106.488 61.0858 106.438 60.6874 106.438Z" fill="white"/>
<path d="M74.6855 127.084C77.2134 127.084 79.552 126.034 81.4465 124.045L81.5381 123.946L83.7453 125.988L83.6556 126.088C81.4166 128.572 78.1656 129.998 74.7353 129.998C71.558 129.998 68.5659 128.871 66.307 126.82C63.9125 124.646 62.5938 121.591 62.5938 118.217C62.5938 111.612 67.7333 106.436 74.295 106.436C77.6795 106.436 80.5819 107.62 82.9166 109.951L83.0082 110.04L81.066 112.25L80.9624 112.151C79.0719 110.321 76.7671 109.352 74.295 109.352C69.534 109.352 65.6595 113.328 65.6595 118.217C65.6595 123.19 69.6237 127.084 74.6855 127.084Z" fill="white"/>
<path fill-rule="evenodd" clip-rule="evenodd" d="M95.0581 118.219C95.0581 111.502 99.7095 106.438 105.877 106.438C111.877 106.438 116.401 111.188 116.401 117.485C116.401 117.69 116.401 118.032 116.351 118.48L116.337 118.601H98.1298C98.3967 123.606 101.787 127.086 106.415 127.086C109.269 127.086 111.706 125.953 113.463 123.808L113.556 123.695L115.714 125.742L115.636 125.839C113.572 128.445 110.124 130 106.415 130C99.835 130 95.0581 125.046 95.0581 118.219ZM105.877 109.352C102.17 109.352 99.2134 111.87 98.3051 115.783H113.214C112.574 111.988 109.578 109.352 105.877 109.352Z" fill="white"/>
<path fill-rule="evenodd" clip-rule="evenodd" d="M55.1615 70.4302C61.6954 70.4302 66.8129 75.6057 66.8129 82.2114C66.8129 88.817 61.6934 93.9906 55.1615 93.9926C48.6276 93.9926 43.51 88.817 43.51 82.2114C43.51 75.6057 48.6276 70.4302 55.1615 70.4302ZM55.1595 73.3442C50.2651 73.3442 46.5738 77.1572 46.5738 82.2114C46.5738 87.2656 50.2671 91.0766 55.1595 91.0766C60.0539 91.0766 63.7452 87.2656 63.7452 82.2114C63.7452 77.1552 60.0539 73.3442 55.1595 73.3442Z" fill="white"/>
<path d="M79.4385 88.5406L71.3309 70.9991L71.293 70.9195H67.9544L78.4684 93.5032H80.4564L90.831 71.1125L90.9206 70.9195H87.5839L79.4385 88.5406Z" fill="white"/>
<path fill-rule="evenodd" clip-rule="evenodd" d="M103.556 70.4302C106.648 70.4302 109.56 71.6515 111.604 73.7897V70.9195H114.572V93.5033H111.604V90.4859C109.803 92.6877 106.883 93.9906 103.704 93.9906C101.219 93.9906 98.9505 93.2745 96.9605 91.8623C93.9027 89.726 92.1497 86.2094 92.1497 82.2114C92.1497 78.5933 93.6855 75.2199 96.3628 72.9583C98.335 71.3512 100.956 70.4302 103.556 70.4302ZM103.656 91.0766C106.815 91.0766 109.747 89.2845 111.506 86.283V77.746C110.439 75.9638 107.476 73.3422 103.606 73.3422C101.706 73.3422 99.7732 74.0264 98.3031 75.2199C96.3429 76.835 95.2174 79.383 95.2174 82.2094C95.2174 85.2069 96.5142 87.91 98.6876 89.4376C100.265 90.5256 101.937 91.0766 103.656 91.0766Z" fill="white"/>
</svg>
